<?xml version="1.0" standalone="no"?>
<!DOCTYPE svg PUBLIC "-//W3C//DTD SVG 1.1//EN" "http://www.w3.org/Graphics/SVG/1.1/DTD/svg11.dtd" >
<svg xmlns="http://www.w3.org/2000/svg">
    <defs>
        <font id="ProximaNova-Regular">
            <font-face font-family="ProximaNova-Regular"
                       units-per-em="1000"
                       ascent="790"
                       descent="-210"
                       bbox="-171 -272 1082 890"
                    />
            <missing-glyph horiz-adv-x="0" />
            
            <glyph glyph-name="!" unicode="&#x21;" horiz-adv-x="170" d=" M146,187 L84,187 L68,667 L162,667 M137,-10 Q93,-10 76.5,6.5 Q60,23 60,45 Q60,68 76,84 Q92,100 115,100 Q138,100 154,84 Q170,68 170,45 Q170,23 137,-10"/> 
            <glyph glyph-name="&quot;" unicode="&#x22;" horiz-adv-x="290" d=" M118,412 L81,412 Q54,617 54,631 Q54,650 67,663.5 Q80,677 99,677 Q118,677 131.5,663.5 Q145,650 145,631 M263,412 L226,412 Q199,617 199,631 Q199,650 212.5,663.5 Q226,677 245,677 Q264,677 277,663.5 Q290,650 290,631"/> 
            <glyph glyph-name="#" unicode="&#x23;" horiz-adv-x="569" d=" M300,0 L239,0 L300,181 L189,181 L129,0 L67,0 L128,181 L22,181 L39,234 L146,234 L212,433 L104,433 L120,485 L230,485 L290,667 L352,667 L292,485 L402,485 L462,667 L523,667 L462,485 L569,485 L554,433 L445,433 L378,234 L489,234 L473,181 L360,181 M317,234 L384,433 L274,433 L207,234"/> 
            <glyph glyph-name="$" unicode="&#x24;" horiz-adv-x="545" d=" M271,-100 L271,-11 Q128,-2 43,94 L93,158 Q162,76 271,64 L271,307 Q223,320 194,331 Q165,342 131,363 Q97,384 80.5,416 Q64,448 64,492 Q64,568 122,619 Q180,670 271,677 L271,768 L332,768 L332,676 Q451,666 530,584 L480,523 Q422,587 332,600 L332,382 Q370,371 394.5,362.5 Q419,354 450.5,337.5 Q482,321 500.5,302 Q519,283 532,252.5 Q545,222 545,184 Q545,108 492.5,52.5 Q440,-3 332,-11 L332,-100 M459,178 Q459,223 426,248 Q393,273 332,291 L332,63 Q398,70 428.5,103 Q459,136 459,178 M150,497 Q150,459 181,437 Q212,415 271,398 L271,602 Q217,598 183.5,569 Q150,540 150,497"/> 
            <glyph glyph-name="%" unicode="&#x25;" horiz-adv-x="700" d=" M263,348 Q121,348 76,394.5 Q31,441 31,511 Q31,583 76,630 Q121,677 192,677 Q263,677 308,630 Q353,583 353,511 Q353,441 263,348 M183,0 L128,0 L554,667 L610,667 M611,-12 Q469,-12 424,35 Q379,82 379,152 Q379,223 424,270 Q469,317 540,317 Q610,317 655,270 Q700,223 700,152 Q700,81 611,-12 M148,399 Q236,399 264.5,431 Q293,463 293,511 Q293,561 265,593.5 Q237,626 192,626 Q148,626 119.5,593.5 Q91,561 91,511 Q91,463 148,399 M495,39 Q585,39 613,71 Q641,103 641,152 Q641,201 613,233.5 Q585,266 540,266 Q495,266 466.5,233.5 Q438,201 438,152 Q438,103 495,39"/> 
            <glyph glyph-name="&amp;" unicode="&#x26;" horiz-adv-x="613" d=" M613,0 L509,0 Q489,17 436,70 Q354,-12 244,-12 Q154,-12 95.5,36.5 Q37,85 37,174 Q37,245 76,290 Q115,335 184,373 Q133,460 133,523 Q133,589 181.5,633 Q230,677 301,677 Q367,677 409,642 Q451,607 451,546 Q451,510 438,481.5 Q425,453 396,429.5 Q367,406 345.5,393 Q324,380 281,358 Q313,315 359,263 Q395,220 438,174 Q482,242 510,327 L574,298 Q530,192 483,126 Q545,62 613,0 M252,50 Q327,50 391,116 Q325,185 299,217 Q251,272 216,323 Q117,263 117,179 Q117,119 156.5,84.5 Q196,50 252,50 M210,521 Q210,474 250,406 Q315,438 348.5,468 Q382,498 382,543 Q382,579 360,599 Q338,619 303,619 Q264,619 237,591.5 Q210,564 210,521"/> 
            <glyph glyph-name="'" unicode="&#x27;" horiz-adv-x="145" d=" M118,412 L81,412 Q54,617 54,631 Q54,650 67,663.5 Q80,677 99,677 Q118,677 131.5,663.5 Q145,650 145,631"/> 
            <glyph glyph-name="(" unicode="&#x28;" horiz-adv-x="231" d=" M231,-164 L185,-199 Q44,-5 44,243 Q44,491 185,685 L231,651 Q178,547 152,454 Q126,361 126,243 Q126,126 152,32.5 Q178,-61 231,-164"/> 
            <glyph glyph-name=")" unicode="&#x29;" horiz-adv-x="204" d=" M17,-164 L63,-199 Q204,-5 204,243 Q204,491 63,685 L17,651 Q70,547 96,454 Q122,361 122,243 Q122,126 96,32.5 Q70,-61 17,-164"/> 
            <glyph glyph-name="*" unicode="&#x2A;" horiz-adv-x="306" d=" M193,389 L147,389 L153,504 L56,442 L34,481 L136,533 L34,585 L56,625 L153,562 L147,677 L193,677 L187,562 L283,625 L306,585 L204,533 L306,481 L283,442 L187,504"/> 
            <glyph glyph-name="+" unicode="&#x2B;" horiz-adv-x="470" d=" M470,311 L278,311 L278,98 L221,98 L221,311 L29,311 L29,363 L221,363 L221,570 L278,570 L278,363 L470,363"/> 
            <glyph glyph-name="," unicode="&#x2C;" horiz-adv-x="176" d=" M176,24 Q176,-20 153.5,-60.5 Q131,-101 95,-127 L57,-96 Q82,-80 100.5,-53.5 Q119,-27 122,-3 Q118,-5 108,-5 Q88,-5 74,9.5 Q60,24 60,46 Q60,68 75.5,84 Q91,100 113,100 Q140,100 158,79.5 Q176,59 176,24"/> 
            <glyph glyph-name="-" unicode="&#x2D;" horiz-adv-x="270" d=" M270,209 L30,209 L30,275 L270,275"/> 
            <glyph glyph-name="." unicode="&#x2E;" horiz-adv-x="170" d=" M138,-10 Q92,-10 76,6 Q60,22 60,45 Q60,68 76,84 Q92,100 115,100 Q138,100 154,84 Q170,68 170,45 Q170,22 138,-10"/> 
            <glyph glyph-name="/" unicode="&#x2F;" horiz-adv-x="296" d=" M59,-20 L0,-20 L237,687 L296,687"/> 
            <glyph glyph-name="0" unicode="&#x30;" horiz-adv-x="561" d=" M306,-12 Q240,-12 189.5,18.5 Q139,49 109.5,100 Q80,151 65.5,210 Q51,269 51,333 Q51,397 65.5,456 Q80,515 109.5,565.5 Q139,616 189.5,646.5 Q240,677 306,677 Q371,677 422,646.5 Q473,616 502.5,565.5 Q532,515 546.5,456 Q561,397 561,333 Q561,269 546.5,210 Q532,151 502.5,100 Q473,49 422,18.5 Q371,-12 306,-12 M246,62 Q366,62 406,103.5 Q446,145 461,203 Q476,261 476,333 Q476,405 461,463 Q446,521 406,562 Q366,603 306,603 Q246,603 206,562 Q166,521 151,463 Q136,405 136,333 Q136,261 151,203 Q166,145 246,62"/> 
            <glyph glyph-name="1" unicode="&#x31;" horiz-adv-x="261" d=" M261,0 L178,0 L178,558 L71,444 L21,495 L188,667 L261,667"/> 
            <glyph glyph-name="2" unicode="&#x32;" horiz-adv-x="512" d=" M512,0 L54,0 L54,67 Q259,227 342,314 Q425,401 425,481 Q425,541 383.5,572 Q342,603 285,603 Q170,603 104,519 L53,572 Q91,622 152.5,649.5 Q214,677 285,677 Q376,677 442.5,626 Q509,575 509,481 Q509,388 429,295.5 Q349,203 185,74 L512,74"/> 
            <glyph glyph-name="3" unicode="&#x33;" horiz-adv-x="503" d=" M266,-12 Q186,-12 124,19 Q62,50 29,98 L78,150 Q108,110 157,86 Q206,62 264,62 Q336,62 378,96 Q420,130 420,187 Q420,247 375.5,276 Q331,305 254,305 Q195,305 185,304 L185,380 Q196,379 254,379 Q322,379 365.5,406.5 Q409,434 409,489 Q409,542 366.5,572.5 Q324,603 260,603 Q159,603 84,522 L38,574 Q122,677 267,677 Q366,677 429,629.5 Q492,582 492,500 Q492,434 448,394 Q404,354 349,345 Q404,339 453.5,296 Q503,253 503,180 Q503,95 438.5,41.5 Q374,-12 266,-12"/> 
            <glyph glyph-name="4" unicode="&#x34;" horiz-adv-x="526" d=" M432,0 L349,0 L349,169 L32,169 L32,238 L318,667 L432,667 L432,242 L526,242 L526,169 L432,169 M349,242 L349,590 L115,242"/> 
            <glyph glyph-name="5" unicode="&#x35;" horiz-adv-x="539" d=" M301,-12 Q147,-12 66,95 L117,151 Q186,62 301,62 Q369,62 412,103 Q455,144 455,205 Q455,270 412.5,309.5 Q370,349 302,349 Q213,349 148,287 L87,308 L87,667 L495,667 L495,593 L170,593 L170,361 Q232,421 326,421 Q415,421 477,364 Q539,307 539,208 Q539,109 471.5,48.5 Q404,-12 301,-12"/> 
            <glyph glyph-name="6" unicode="&#x36;" horiz-adv-x="542" d=" M309,-12 Q241,-12 190,16 Q139,44 109.5,93 Q80,142 65.5,202 Q51,262 51,333 Q51,479 120.5,578 Q190,677 323,677 Q439,677 507,597 L465,535 Q407,603 323,603 Q232,603 183.5,526 Q135,449 135,341 L135,315 Q160,355 212.5,387 Q265,419 324,419 Q419,419 480.5,363.5 Q542,308 542,206 Q542,116 478,52 Q414,-12 309,-12 M305,62 Q377,62 417.5,106 Q458,150 458,203 Q458,273 415,310 Q372,347 305,347 Q256,347 211,319.5 Q166,292 138,248 Q144,174 185,118 Q226,62 305,62"/> 
            <glyph glyph-name="7" unicode="&#x37;" horiz-adv-x="486" d=" M213,0 L121,0 L390,593 L31,593 L31,667 L486,667 L486,610"/> 
            <glyph glyph-name="8" unicode="&#x38;" horiz-adv-x="530" d=" M393,-12 Q189,-12 120.5,37 Q52,86 52,169 Q52,232 97.5,278 Q143,324 211,344 Q147,362 105,402.5 Q63,443 63,504 Q63,588 131,632.5 Q199,677 291,677 Q383,677 451.5,632.5 Q520,588 520,504 Q520,443 477.5,402.5 Q435,362 371,344 Q439,324 484.5,278 Q530,232 530,169 Q530,87 393,-12 M291,378 Q311,381 331.5,388 Q352,395 378,407.5 Q404,420 420,442.5 Q436,465 436,493 Q436,543 394.5,573 Q353,603 291,603 Q229,603 188,573.5 Q147,544 147,493 Q147,465 163,442.5 Q179,420 205,407.5 Q231,395 251,388 Q271,381 291,378 M291,62 Q355,62 400.5,94 Q446,126 446,178 Q446,218 414.5,248.5 Q383,279 350.5,291.5 Q318,304 291,307 Q264,304 231.5,291.5 Q199,279 167.5,248.5 Q136,218 136,178 Q136,126 181,94 Q226,62 291,62"/> 
            <glyph glyph-name="9" unicode="&#x39;" horiz-adv-x="541" d=" M269,-11 Q155,-11 84,69 L126,131 Q184,63 269,63 Q333,63 377,103 Q421,143 439,200 Q457,257 457,325 Q457,342 456,351 Q431,311 379,279 Q327,247 268,247 Q173,247 111,302.5 Q49,358 49,460 Q49,550 113,614 Q177,678 283,678 Q350,678 401,650 Q452,622 482,573 Q512,524 526.5,464 Q541,404 541,333 Q541,239 513,163.5 Q485,88 422,38.5 Q359,-11 269,-11 M287,319 Q336,319 381.5,346.5 Q427,374 454,419 Q451,452 440.5,483 Q430,514 411,542 Q392,570 359.5,587 Q327,604 286,604 Q215,604 174,560.5 Q133,517 133,463 Q133,393 176,356 Q219,319 287,319"/> 
            <glyph glyph-name=":" unicode="&#x3A;" horiz-adv-x="170" d=" M137,380 Q93,380 76.5,396.5 Q60,413 60,435 Q60,458 76,474 Q92,490 115,490 Q138,490 154,474 Q170,458 170,435 Q170,413 137,380 M138,-10 Q92,-10 76,6 Q60,22 60,45 Q60,68 76,84 Q92,100 115,100 Q138,100 154,84 Q170,68 170,45 Q170,22 138,-10"/> 
            <glyph glyph-name=";" unicode="&#x3B;" horiz-adv-x="176" d=" M137,380 Q93,380 76.5,396.5 Q60,413 60,435 Q60,458 76,474 Q92,490 115,490 Q138,490 154,474 Q170,458 170,435 Q170,413 137,380 M176,26 Q176,-19 153.5,-59 Q131,-99 95,-125 L57,-95 Q81,-79 100,-52 Q119,-25 122,-1 Q118,-3 108,-3 Q88,-3 74,11.5 Q60,26 60,48 Q60,70 75.5,86 Q91,102 113,102 Q140,102 158,81.5 Q176,61 176,26"/> 
            <glyph glyph-name="&lt;" unicode="&#x3C;" horiz-adv-x="470" d=" M470,90 L29,308 L29,361 L470,580 L470,517 L93,334 L470,153"/> 
            <glyph glyph-name="=" unicode="&#x3D;" horiz-adv-x="470" d=" M470,404 L29,404 L29,457 L470,457 M470,211 L29,211 L29,264 L470,264"/> 
            <glyph glyph-name="&gt;" unicode="&#x3E;" horiz-adv-x="470" d=" M470,308 L29,90 L29,153 L406,334 L29,517 L29,580 L470,361"/> 
            <glyph glyph-name="?" unicode="&#x3F;" horiz-adv-x="431" d=" M203,185 Q165,217 165,267 Q165,302 183.5,330 Q202,358 228.5,377.5 Q255,397 281.5,415 Q308,433 326.5,457 Q345,481 345,510 Q345,550 314.5,576.5 Q284,603 228,603 Q129,603 68,521 L18,575 Q96,677 235,677 Q324,677 377.5,632.5 Q431,588 431,522 Q431,480 411,446.5 Q391,413 362.5,392 Q334,371 306,352 Q278,333 258,310 Q238,287 238,260 Q238,230 264,212 M246,-10 Q202,-10 185.5,6 Q169,22 169,45 Q169,68 185.5,84 Q202,100 224,100 Q246,100 262.5,84 Q279,68 279,45 Q279,22 246,-10"/> 
            <glyph glyph-name="@" unicode="&#x40;" horiz-adv-x="747" d=" M352,-70 Q216,-70 125.5,20.5 Q35,111 35,244 Q35,404 154.5,521 Q274,638 432,638 Q571,638 659,546.5 Q747,455 747,321 Q747,211 695,148 Q643,85 574,85 Q534,85 509.5,108.5 Q485,132 483,166 L483,173 Q456,134 413,109.5 Q370,85 324,85 Q255,85 213,130 Q171,175 171,248 Q171,350 243,424.5 Q315,499 406,499 Q452,499 485.5,477 Q519,455 534,421 L547,483 L615,483 L558,212 Q556,200 556,191 Q556,167 569.5,153 Q583,139 603,139 Q641,139 676.5,184 Q712,229 712,321 Q712,445 633.5,524.5 Q555,604 429,604 Q285,604 177.5,495.5 Q70,387 70,246 Q70,125 151,44 Q232,-37 356,-37 Q453,-37 542,19 L560,-7 Q462,-70 352,-70 M345,141 Q431,141 493,231 L522,370 Q512,398 485.5,420.5 Q459,443 419,443 Q346,443 294.5,385 Q243,327 243,252 Q243,203 270,172 Q297,141 345,141"/> 
            <glyph glyph-name="A" unicode="&#x41;" horiz-adv-x="649" d=" M649,0 L554,0 L495,149 L163,149 L104,0 L9,0 L278,667 L381,667 M471,222 L329,582 L188,222"/> 
            <glyph glyph-name="B" unicode="&#x42;" horiz-adv-x="575" d=" M382,0 L78,0 L78,667 L375,667 Q461,667 511.5,620 Q562,573 562,497 Q562,437 528,395.5 Q494,354 445,344 Q498,336 536.5,288 Q575,240 575,180 Q575,99 523.5,49.5 Q472,0 382,0 M361,378 Q416,378 446,408 Q476,438 476,485 Q476,532 445.5,562.5 Q415,593 361,593 L161,593 L161,378 M366,74 Q424,74 456.5,105 Q489,136 489,189 Q489,237 456.5,270.5 Q424,304 366,304 L161,304 L161,74"/> 
            <glyph glyph-name="C" unicode="&#x43;" horiz-adv-x="648" d=" M394,-12 Q248,-12 149.5,84.5 Q51,181 51,333 Q51,485 149.5,581.5 Q248,678 394,678 Q555,678 647,546 L578,507 Q549,551 499.5,577.5 Q450,604 394,604 Q283,604 210,528 Q137,452 137,333 Q137,215 210.5,138.5 Q284,62 394,62 Q450,62 499.5,89 Q549,116 578,159 L648,121 Q551,-12 394,-12"/> 
            <glyph glyph-name="D" unicode="&#x44;" horiz-adv-x="648" d=" M306,0 L78,0 L78,667 L306,667 Q459,667 553.5,572 Q648,477 648,333 Q648,188 554,94 Q460,0 306,0 M306,74 Q424,74 493,148 Q562,222 562,333 Q562,445 494,519 Q426,593 306,593 L161,593 L161,74"/> 
            <glyph glyph-name="E" unicode="&#x45;" horiz-adv-x="515" d=" M515,0 L78,0 L78,667 L515,667 L515,593 L161,593 L161,378 L508,378 L508,304 L161,304 L161,74 L515,74"/> 
            <glyph glyph-name="F" unicode="&#x46;" horiz-adv-x="515" d=" M161,0 L78,0 L78,667 L515,667 L515,593 L161,593 L161,378 L508,378 L508,304 L161,304"/> 
            <glyph glyph-name="G" unicode="&#x47;" horiz-adv-x="656" d=" M394,-13 Q249,-13 150,83.5 Q51,180 51,333 Q51,486 149.5,582 Q248,678 394,678 Q553,678 653,554 L587,512 Q555,554 503.5,579 Q452,604 394,604 Q283,604 210,528 Q137,452 137,333 Q137,215 210.5,138.5 Q284,62 394,62 Q449,62 497,83.5 Q545,105 574,134 L574,269 L344,269 L344,343 L656,343 L656,103 Q553,-13 394,-13"/> 
            <glyph glyph-name="H" unicode="&#x48;" horiz-adv-x="634" d=" M634,0 L551,0 L551,306 L161,306 L161,0 L78,0 L78,667 L161,667 L161,380 L551,380 L551,667 L634,667"/> 
            <glyph glyph-name="I" unicode="&#x49;" horiz-adv-x="161" d=" M161,0 L78,0 L78,667 L161,667"/> 
            <glyph glyph-name="J" unicode="&#x4A;" horiz-adv-x="397" d=" M185,-12 Q77,-12 11,65 L55,128 Q108,62 180,62 Q241,62 277.5,100.5 Q314,139 314,202 L314,667 L397,667 L397,201 Q397,97 338,42.5 Q279,-12 185,-12"/> 
            <glyph glyph-name="K" unicode="&#x4B;" horiz-adv-x="585" d=" M585,0 L481,0 L228,300 L161,224 L161,0 L78,0 L78,667 L161,667 L161,323 L456,667 L560,667 L282,351"/> 
            <glyph glyph-name="L" unicode="&#x4C;" horiz-adv-x="460" d=" M460,0 L67,0 L67,667 L150,667 L150,74 L460,74"/> 
            <glyph glyph-name="M" unicode="&#x4D;" horiz-adv-x="731" d=" M731,0 L648,0 L648,561 L422,0 L388,0 L161,561 L161,0 L78,0 L78,667 L197,667 L405,153 L612,667 L731,667"/> 
            <glyph glyph-name="N" unicode="&#x4E;" horiz-adv-x="630" d=" M630,0 L550,0 L161,532 L161,0 L78,0 L78,667 L163,667 L547,146 L547,667 L630,667"/> 
            <glyph glyph-name="O" unicode="&#x4F;" horiz-adv-x="714" d=" M528,-12 Q236,-12 143.5,86 Q51,184 51,333 Q51,482 143.5,580 Q236,678 382,678 Q528,678 621,580 Q714,482 714,333 Q714,184 528,-12 M382,62 Q492,62 560,138.5 Q628,215 628,333 Q628,451 560,527.5 Q492,604 382,604 Q271,604 204,528 Q137,452 137,333 Q137,215 204,138.5 Q271,62 382,62"/> 
            <glyph glyph-name="P" unicode="&#x50;" horiz-adv-x="555" d=" M161,0 L78,0 L78,667 L346,667 Q443,667 499,609 Q555,551 555,466 Q555,381 498.5,323 Q442,265 346,265 L161,265 M336,339 Q395,339 432,374.5 Q469,410 469,466 Q469,522 432,557.5 Q395,593 336,593 L161,593 L161,339"/> 
            <glyph glyph-name="Q" unicode="&#x51;" horiz-adv-x="714" d=" M382,-12 Q236,-12 143.5,86 Q51,184 51,333 Q51,482 143.5,580 Q236,678 382,678 Q528,678 621,580 Q714,482 714,333 Q714,184 622,86 L685,19 L628,-31 L563,38 Q485,-12 382,-12 M382,62 Q453,62 509,96 L414,199 L472,248 L566,146 Q628,222 628,333 Q628,451 560,527.5 Q492,604 382,604 Q271,604 204,528 Q137,452 137,333 Q137,215 204,138.5 Q271,62 382,62"/> 
            <glyph glyph-name="R" unicode="&#x52;" horiz-adv-x="562" d=" M562,0 L464,0 L295,265 L161,265 L161,0 L78,0 L78,667 L346,667 Q439,667 497.5,612 Q556,557 556,466 Q556,380 505.5,329 Q455,278 382,272 M336,338 Q395,338 432.5,374 Q470,410 470,466 Q470,523 432.5,558 Q395,593 336,593 L161,593 L161,338"/> 
            <glyph glyph-name="S" unicode="&#x53;" horiz-adv-x="540" d=" M294,-12 Q132,-12 38,94 L88,158 Q171,62 297,62 Q378,62 416,97 Q454,132 454,178 Q454,218 424.5,244.5 Q395,271 351.5,283 Q308,295 256.5,310.5 Q205,326 161.5,343 Q118,360 88.5,398 Q59,436 59,492 Q59,574 124,626 Q189,678 289,678 Q436,678 525,584 L475,523 Q404,603 282,603 Q222,603 183.5,573.5 Q145,544 145,497 Q145,462 174.5,439 Q204,416 247.5,405 Q291,394 342.5,377.5 Q394,361 437.5,342.5 Q481,324 510.5,283 Q540,242 540,184 Q540,103 479.5,45.5 Q419,-12 294,-12"/> 
            <glyph glyph-name="T" unicode="&#x54;" horiz-adv-x="538" d=" M326,0 L243,0 L243,593 L32,593 L32,667 L538,667 L538,593 L326,593"/> 
            <glyph glyph-name="U" unicode="&#x55;" horiz-adv-x="623" d=" M350,-12 Q218,-12 148,60.5 Q78,133 78,259 L78,667 L162,667 L162,261 Q162,168 210.5,115 Q259,62 350,62 Q441,62 490,115 Q539,168 539,261 L539,667 L623,667 L623,260 Q623,133 553,60.5 Q483,-12 350,-12"/> 
            <glyph glyph-name="V" unicode="&#x56;" horiz-adv-x="649" d=" M381,0 L278,0 L9,667 L104,667 L329,91 L554,667 L649,667"/> 
            <glyph glyph-name="W" unicode="&#x57;" horiz-adv-x="869" d=" M678,0 L588,0 L441,538 L294,0 L204,0 L14,667 L106,667 L254,111 L407,667 L476,667 L629,111 L776,667 L869,667"/> 
            <glyph glyph-name="X" unicode="&#x58;" horiz-adv-x="640" d=" M640,0 L539,0 L326,284 L113,0 L12,0 L272,342 L27,667 L128,667 L326,401 L523,667 L625,667 L380,343"/> 
            <glyph glyph-name="Y" unicode="&#x59;" horiz-adv-x="617" d=" M355,0 L272,0 L272,282 L9,667 L106,667 L313,357 L520,667 L617,667 L355,282"/> 
            <glyph glyph-name="Z" unicode="&#x5A;" horiz-adv-x="537" d=" M537,0 L48,0 L48,69 L423,593 L48,593 L48,667 L530,667 L530,598 L154,74 L537,74"/> 
            <glyph glyph-name="[" unicode="&#x5B;" horiz-adv-x="226" d=" M226,-190 L40,-190 L40,678 L226,678 L226,623 L99,623 L99,-135 L226,-135"/> 
            <glyph glyph-name="\" unicode="&#x5C;" horiz-adv-x="296" d=" M237,-20 L0,687 L59,687 L296,-20"/> 
            <glyph glyph-name="]" unicode="&#x5D;" horiz-adv-x="204" d=" M204,-190 L17,-190 L17,-135 L145,-135 L145,623 L17,623 L17,678 L204,678"/> 
            <glyph glyph-name="^" unicode="&#x5E;" horiz-adv-x="413" d=" M413,333 L351,333 L216,612 L81,333 L19,333 L188,667 L245,667"/> 
            <glyph glyph-name="_" unicode="&#x5F;" horiz-adv-x="567" d=" M567,-95 L-3,-95 L-3,-40 L567,-40"/> 
            <glyph glyph-name="`" unicode="&#x60;" horiz-adv-x="226" d=" M226,556 L169,556 L0,700 L78,700"/> 
            <glyph glyph-name="a" unicode="&#x61;" horiz-adv-x="452" d=" M452,0 L377,0 L377,55 Q318,-12 217,-12 Q151,-12 100,31 Q49,74 49,148 Q49,225 99,266 Q149,307 217,307 Q319,307 377,242 L377,329 Q377,376 343,403 Q309,430 255,430 Q168,430 107,363 L72,415 Q149,495 265,495 Q348,495 400,455 Q452,415 452,332 M245,42 Q334,42 377,102 L377,194 Q333,253 245,253 Q192,253 158.5,223.5 Q125,194 125,148 Q125,101 158.5,71.5 Q192,42 245,42"/> 
            <glyph glyph-name="b" unicode="&#x62;" horiz-adv-x="528" d=" M150,131 Q170,99 210.5,77 Q251,55 295,55 Q366,55 408,107 Q450,159 450,241 Q450,323 408,375.5 Q366,428 295,428 Q251,428 210.5,405.5 Q170,383 150,350 M150,0 L75,0 L75,667 L150,667 L150,410 Q213,495 313,495 Q409,495 468.5,425.5 Q528,356 528,241 Q528,125 468.5,56.5 Q409,-12 313,-12 Q212,-12 150,72"/> 
            <glyph glyph-name="c" unicode="&#x63;" horiz-adv-x="465" d=" M288,-12 Q181,-12 114,60.5 Q47,133 47,242 Q47,351 114,423 Q181,495 288,495 Q400,495 465,411 L415,366 Q370,428 292,428 Q217,428 171,375.5 Q125,323 125,242 Q125,160 171,107.5 Q217,55 292,55 Q368,55 415,118 L465,72 Q400,-12 288,-12"/> 
            <glyph glyph-name="d" unicode="&#x64;" horiz-adv-x="500" d=" M500,0 L425,0 L425,72 Q363,-12 262,-12 Q166,-12 106.5,56.5 Q47,125 47,241 Q47,356 107,425.5 Q167,495 262,495 Q362,495 425,410 L425,667 L500,667 M281,55 Q324,55 364.5,77.5 Q405,100 425,132 L425,350 Q405,383 364.5,405.5 Q324,428 281,428 Q209,428 167,375.5 Q125,323 125,241 Q125,159 167,107 Q209,55 281,55"/> 
            <glyph glyph-name="e" unicode="&#x65;" horiz-adv-x="517" d=" M294,-12 Q185,-12 116,58.5 Q47,129 47,242 Q47,348 115,421.5 Q183,495 285,495 Q392,495 454.5,421.5 Q517,348 517,236 L517,217 L127,217 Q132,146 178.5,98 Q225,50 300,50 Q390,50 450,112 L486,63 Q409,-12 294,-12 M443,273 Q442,334 401,383.5 Q360,433 284,433 Q212,433 170.5,384 Q129,335 126,273"/> 
            <glyph glyph-name="f" unicode="&#x66;" horiz-adv-x="338" d=" M171,0 L96,0 L96,417 L16,417 L16,483 L96,483 L96,520 Q96,594 134,635.5 Q172,677 236,677 Q298,677 338,640 L307,592 Q281,615 248,615 Q171,615 171,520 L171,483 L269,483 L269,417 L171,417"/> 
            <glyph glyph-name="g" unicode="&#x67;" horiz-adv-x="500" d=" M269,-196 Q206,-196 161,-180 Q116,-164 74,-123 L112,-69 Q167,-134 269,-134 Q335,-134 380,-99.5 Q425,-65 425,7 L425,80 Q397,41 354,17.5 Q311,-6 262,-6 Q166,-6 106.5,61.5 Q47,129 47,244 Q47,359 106.5,427 Q166,495 262,495 Q362,495 425,410 L425,483 L500,483 L500,7 Q500,-99 434.5,-147.5 Q369,-196 269,-196 M281,61 Q324,61 364,83.5 Q404,106 425,139 L425,351 Q404,383 364,405.5 Q324,428 281,428 Q209,428 167,377 Q125,326 125,244 Q125,163 167,112 Q209,61 281,61"/> 
            <glyph glyph-name="h" unicode="&#x68;" horiz-adv-x="477" d=" M477,0 L402,0 L402,318 Q402,379 374,403.5 Q346,428 293,428 Q252,428 212.5,406 Q173,384 151,353 L151,0 L76,0 L76,667 L151,667 L151,413 Q178,447 225,471 Q272,495 323,495 Q477,495 477,341"/> 
            <glyph glyph-name="i" unicode="&#x69;" horiz-adv-x="163" d=" M134,552 Q92,552 77,566.5 Q62,581 62,602 Q62,623 77,638 Q92,653 113,653 Q134,653 148.5,638 Q163,623 163,602 Q163,581 134,552 M150,0 L75,0 L75,483 L150,483"/> 
            <glyph glyph-name="j" unicode="&#x6A;" horiz-adv-x="163" d=" M134,552 Q92,552 77,566.5 Q62,581 62,602 Q62,623 77,638 Q92,653 113,653 Q134,653 148.5,638 Q163,623 163,602 Q163,581 134,552 M7,-196 Q-53,-196 -98,-160 L-72,-104 Q-42,-134 -3,-134 Q33,-134 54,-112.5 Q75,-91 75,-47 L75,483 L150,483 L150,-47 Q150,-119 113,-157.5 Q76,-196 7,-196"/> 
            <glyph glyph-name="k" unicode="&#x6B;" horiz-adv-x="500" d=" M500,0 L404,0 L231,217 L150,138 L150,0 L75,0 L75,667 L150,667 L150,226 L404,483 L499,483 L285,264"/> 
            <glyph glyph-name="l" unicode="&#x6C;" horiz-adv-x="150" d=" M150,0 L75,0 L75,667 L150,667"/> 
            <glyph glyph-name="m" unicode="&#x6D;" horiz-adv-x="733" d=" M733,0 L658,0 L658,328 Q658,428 569,428 Q533,428 497,406.5 Q461,385 441,354 L441,0 L366,0 L366,328 Q366,428 277,428 Q242,428 206.5,406 Q171,384 150,353 L150,0 L75,0 L75,483 L150,483 L150,413 Q169,442 213.5,468.5 Q258,495 307,495 Q359,495 392,470 Q425,445 436,405 Q458,441 503,468 Q548,495 598,495 Q733,495 733,349"/> 
            <glyph glyph-name="n" unicode="&#x6E;" horiz-adv-x="476" d=" M476,0 L402,0 L402,316 Q402,377 374,402.5 Q346,428 293,428 Q251,428 212,406 Q173,384 150,353 L150,0 L75,0 L75,483 L150,483 L150,413 Q178,447 225,471 Q272,495 323,495 Q476,495 476,339"/> 
            <glyph glyph-name="o" unicode="&#x6F;" horiz-adv-x="525" d=" M394,-12 Q178,-12 112.5,61 Q47,134 47,242 Q47,350 112.5,422.5 Q178,495 286,495 Q394,495 459.5,422.5 Q525,350 525,242 Q525,134 394,-12 M212,55 Q360,55 403,109.5 Q446,164 446,242 Q446,320 403,374 Q360,428 286,428 Q212,428 169,374 Q126,320 126,242 Q126,164 212,55"/> 
            <glyph glyph-name="p" unicode="&#x70;" horiz-adv-x="528" d=" M313,-12 Q214,-12 150,73 L150,-184 L75,-184 L75,483 L150,483 L150,411 Q177,449 220,472 Q263,495 313,495 Q409,495 468.5,426.5 Q528,358 528,242 Q528,126 468.5,57 Q409,-12 313,-12 M294,55 Q365,55 407,107.5 Q449,160 449,242 Q449,324 407,376 Q365,428 294,428 Q251,428 210.5,405.5 Q170,383 150,351 L150,133 Q170,100 210.5,77.5 Q251,55 294,55"/> 
            <glyph glyph-name="q" unicode="&#x71;" horiz-adv-x="497" d=" M278,55 Q321,55 361.5,77.5 Q402,100 422,133 L422,351 Q402,383 361.5,405.5 Q321,428 278,428 Q207,428 165,376 Q123,324 123,242 Q123,160 165,107.5 Q207,55 278,55 M259,-12 Q163,-12 103.5,57 Q44,126 44,242 Q44,358 103.5,426.5 Q163,495 259,495 Q309,495 352,472 Q395,449 422,411 L422,483 L497,483 L497,-184 L422,-184 L422,73 Q358,-12 259,-12"/> 
            <glyph glyph-name="r" unicode="&#x72;" horiz-adv-x="311" d=" M150,0 L75,0 L75,483 L150,483 L150,406 Q219,494 311,494 L311,417 Q293,419 282,419 Q247,419 207,395.5 Q167,372 150,342"/> 
            <glyph glyph-name="s" unicode="&#x73;" horiz-adv-x="418" d=" M229,-12 Q107,-12 34,64 L72,118 Q97,89 140.5,69 Q184,49 231,49 Q285,49 315.5,72 Q346,95 346,132 Q346,164 315,182.5 Q284,201 240,210.5 Q196,220 152.5,232.5 Q109,245 78,275.5 Q47,306 47,356 Q47,415 95,455 Q143,495 226,495 Q337,495 405,425 L370,373 Q319,434 226,434 Q177,434 148,412.5 Q119,391 119,358 Q119,334 141,318 Q163,302 196.5,295 Q230,288 268.5,277 Q307,266 340.5,252.5 Q374,239 396,208.5 Q418,178 418,134 Q418,70 368.5,29 Q319,-12 229,-12"/> 
            <glyph glyph-name="t" unicode="&#x74;" horiz-adv-x="287" d=" M198,-12 Q90,-12 90,101 L90,417 L10,417 L10,483 L90,483 L90,615 L166,615 L166,483 L264,483 L264,417 L166,417 L166,117 Q166,89 178.5,72 Q191,55 214,55 Q246,55 265,76 L287,19 Q254,-12 198,-12"/> 
            <glyph glyph-name="u" unicode="&#x75;" horiz-adv-x="476" d=" M476,0 L401,0 L401,68 Q371,34 325.5,11 Q280,-12 229,-12 Q75,-12 75,142 L75,483 L150,483 L150,165 Q150,105 178,80 Q206,55 259,55 Q301,55 340,76 Q379,97 401,128 L401,483 L476,483"/> 
            <glyph glyph-name="v" unicode="&#x76;" horiz-adv-x="487" d=" M286,0 L204,0 L3,483 L85,483 L245,87 L406,483 L487,483"/> 
            <glyph glyph-name="w" unicode="&#x77;" horiz-adv-x="723" d=" M569,0 L493,0 L367,388 L241,0 L166,0 L12,483 L90,483 L208,98 L335,483 L400,483 L526,98 L644,483 L723,483"/> 
            <glyph glyph-name="x" unicode="&#x78;" horiz-adv-x="475" d=" M475,0 L389,0 L243,198 L98,0 L12,0 L197,248 L22,483 L109,483 L243,299 L378,483 L464,483 L289,248"/> 
            <glyph glyph-name="y" unicode="&#x79;" horiz-adv-x="487" d=" M49,-189 L60,-121 Q78,-129 101,-129 Q127,-129 144,-118 Q161,-107 173,-78 L205,-5 L3,483 L85,483 L245,87 L406,483 L487,483 L245,-98 Q205,-194 103,-196 Q72,-196 49,-189"/> 
            <glyph glyph-name="z" unicode="&#x7A;" horiz-adv-x="420" d=" M420,0 L52,0 L52,59 L318,417 L52,417 L52,483 L416,483 L416,426 L148,66 L420,66"/> 
            <glyph glyph-name="{" unicode="&#x7B;" horiz-adv-x="244" d=" M244,-190 L182,-190 Q132,-190 95,-152.5 Q58,-115 58,-56 L58,150 Q58,180 44.5,199.5 Q31,219 5,219 L5,269 Q31,269 44.5,288.5 Q58,308 58,338 L58,543 Q58,603 95,640.5 Q132,678 182,678 L244,678 L244,623 L182,623 Q155,623 135.5,600.5 Q116,578 116,544 L116,332 Q116,263 71,244 Q116,225 116,156 L116,-55 Q116,-89 135.5,-112 Q155,-135 182,-135 L244,-135"/> 
            <glyph glyph-name="|" unicode="&#x7C;" horiz-adv-x="133" d=" M133,-20 L78,-20 L78,687 L133,687"/> 
            <glyph glyph-name="}" unicode="&#x7D;" horiz-adv-x="255" d=" M17,-190 L17,-135 L78,-135 Q105,-135 125,-112 Q145,-89 145,-55 L145,156 Q145,225 190,244 Q145,263 145,332 L145,544 Q145,578 125.5,600.5 Q106,623 78,623 L17,623 L17,678 L78,678 Q128,678 165.5,640.5 Q203,603 203,543 L203,338 Q203,308 216.5,288.5 Q230,269 255,269 L255,219 Q230,219 216.5,199.5 Q203,180 203,150 L203,-56 Q203,-115 165.5,-152.5 Q128,-190 78,-190"/> 
            <glyph glyph-name="~" unicode="&#x7E;" horiz-adv-x="475" d=" M420,667 L475,661 Q470,610 462.5,572 Q455,534 440,497.5 Q425,461 399.5,442 Q374,423 338,423 Q303,423 279.5,442.5 Q256,462 244.5,490 Q233,518 223.5,546 Q214,574 200,593.5 Q186,613 165,613 Q102,613 83,422 L27,429 Q32,479 40,517.5 Q48,556 63,592 Q78,628 104,647 Q130,666 165,666 Q200,666 223.5,646.5 Q247,627 258.5,598.5 Q270,570 279.5,542 Q289,514 303,494.5 Q317,475 338,475 Q401,475 420,667"/> 
            <glyph glyph-name="¡" unicode="&#xA1;" horiz-adv-x="169" d=" M68,-184 L83,296 L146,296 L162,-184 M60,416 Q60,460 76,476.5 Q92,493 115,493 Q137,493 153,477 Q169,461 169,438 Q169,416 153,400 Q137,384 115,384 Q93,384 60,416"/> 
            <glyph glyph-name="¢" unicode="&#xA2;" horiz-adv-x="465" d=" M252,-100 L252,-9 Q160,3 103.5,73 Q47,143 47,242 Q47,340 103.5,409.5 Q160,479 252,492 L252,565 L311,565 L311,494 Q405,486 465,411 L415,366 Q375,421 311,427 L311,56 Q374,62 415,118 L465,72 Q407,-3 311,-11 L311,-100 M125,312 Q125,172 159,122 Q193,72 252,59 L252,424 Q193,411 125,312"/> 
            <glyph glyph-name="£" unicode="&#xA3;" horiz-adv-x="508" d=" M20,268 L20,322 L125,322 Q97,354 86.5,367.5 Q76,381 62,413.5 Q48,446 48,480 Q48,562 114,619.5 Q180,677 272,677 Q340,677 393,647.5 Q446,618 474,565 L407,525 Q394,559 359,583 Q324,607 280,607 Q221,607 179.5,572 Q138,537 138,479 Q138,453 147,428.5 Q156,404 164,391.5 Q172,379 192,354.5 Q212,330 218,322 L368,322 L368,268 L246,268 Q253,245 253,225 Q253,147 177,93 Q204,102 229,102 Q262,102 306,81.5 Q350,61 377,61 Q408,61 434.5,73.5 Q461,86 472,101 L508,34 Q459,-13 373,-13 Q326,-13 278,10 Q230,33 194,33 Q152,33 76,-7 L47,56 Q111,84 145,123.5 Q179,163 179,208 Q179,238 164,268"/> 
            <glyph glyph-name="¤" unicode="&#xA4;" horiz-adv-x="486" d=" M486,137 L457,108 L401,165 Q341,114 261,114 Q181,114 121,165 L64,108 L36,137 L92,193 Q42,256 42,333 Q42,412 92,473 L36,530 L64,558 L121,502 Q180,552 261,552 Q340,552 401,502 L457,558 L486,530 L430,473 Q480,412 480,333 Q480,256 430,193 M432,262 Q432,404 382,454 Q332,504 261,504 Q190,504 140,454 Q90,404 90,333 Q90,262 140,212 Q190,162 261,162 Q332,162 432,262"/> 
            <glyph glyph-name="¥" unicode="&#xA5;" horiz-adv-x="617" d=" M355,0 L272,0 L272,122 L22,122 L22,175 L272,175 L272,282 L22,282 L22,334 L236,334 L9,667 L106,667 L313,357 L520,667 L617,667 L390,334 L605,334 L605,282 L355,282 L355,175 L605,175 L605,122 L355,122"/> 
            <glyph glyph-name="¦" unicode="&#xA6;" horiz-adv-x="133" d=" M133,-20 L78,-20 L78,296 L133,296 M133,371 L78,371 L78,687 L133,687"/> 
            <glyph glyph-name="§" unicode="&#xA7;" horiz-adv-x="418" d=" M418,315 Q418,227 326,188 Q418,152 418,66 Q418,-3 366,-42 Q314,-81 229,-81 Q114,-81 34,-3 L72,46 Q131,-25 229,-25 Q281,-25 313.5,-2 Q346,21 346,61 Q346,95 315,114.5 Q284,134 240,144.5 Q196,155 152.5,168 Q109,181 78,211.5 Q47,242 47,291 Q47,340 79.5,372.5 Q112,405 161,418 Q47,454 47,542 Q47,599 95.5,638 Q144,677 226,677 Q342,677 405,606 L370,561 Q320,621 229,621 Q180,621 149.5,599 Q119,577 119,541 Q119,515 141,498.5 Q163,482 196.5,474.5 Q230,467 268.5,456 Q307,445 340.5,432 Q374,419 396,389 Q418,359 418,315 M344,306 Q344,344 313.5,364 Q283,384 231,397 Q169,381 144,357 Q119,333 119,298 Q119,272 141,253.5 Q163,235 182.5,228.5 Q202,222 250,210 Q257,208 261,207 Q344,243 344,306"/> 
            <glyph glyph-name="¨" unicode="&#xA8;" horiz-adv-x="286" d=" M286,623 Q286,585 272,571.5 Q258,558 239,558 Q220,558 206.5,571.5 Q193,585 193,604 Q193,623 206.5,636.5 Q220,650 239,650 Q259,650 286,623 M79,623 Q79,585 65.5,571.5 Q52,558 33,558 Q14,558 0,571.5 Q-14,585 -14,604 Q-14,623 -0.5,636.5 Q13,650 33,650 Q52,650 79,623"/> 
            <glyph glyph-name="©" unicode="&#xA9;" horiz-adv-x="734" d=" M734,477 Q734,191 633,90 Q532,-11 389,-11 Q246,-11 145,90.5 Q44,192 44,334 Q44,477 145,578 Q246,679 389,679 Q532,679 734,477 M703,334 Q703,464 611,556 Q519,648 389,648 Q260,648 167.5,556 Q75,464 75,334 Q75,205 167.5,112.5 Q260,20 389,20 Q519,20 611,112.5 Q703,205 703,334 M512,212 L538,187 Q481,121 391,121 Q304,121 243.5,183 Q183,245 183,336 Q183,427 243.5,487.5 Q304,548 391,548 Q482,548 537,483 L512,458 Q493,484 459.5,499.5 Q426,515 391,515 Q321,515 270.5,464.5 Q220,414 220,335 Q220,258 271,206 Q322,154 391,154 Q427,154 459.5,170 Q492,186 512,212"/> 
            <glyph glyph-name="ª" unicode="&#xAA;" horiz-adv-x="318" d=" M318,326 L261,326 L261,361 Q220,318 153,318 Q109,318 75,346 Q41,374 41,422 Q41,471 74.5,498 Q108,525 153,525 Q221,525 261,483 L261,538 Q261,568 238,585.5 Q215,603 181,603 Q122,603 83,557 L57,595 Q109,648 188,648 Q245,648 281.5,621 Q318,594 318,537 M175,356 Q231,356 261,394 L261,450 Q231,488 175,488 Q142,488 120.5,469.5 Q99,451 99,422 Q99,392 120.5,374 Q142,356 175,356"/> 
            <glyph glyph-name="«" unicode="&#xAB;" horiz-adv-x="409" d=" M409,63 L334,63 L174,243 L334,420 L409,420 L249,243 M265,63 L190,63 L30,243 L190,420 L265,420 L105,243"/> 
            <glyph glyph-name="¬" unicode="&#xAC;" horiz-adv-x="470" d=" M470,457 L470,211 L415,211 L415,404 L29,404 L29,457"/> 
            <glyph glyph-name="®" unicode="&#xAE;" horiz-adv-x="459" d=" M459,465 Q459,377 397,315 Q335,253 247,253 Q159,253 97,315 Q35,377 35,465 Q35,553 97,615 Q159,677 247,677 Q336,677 397.5,615.5 Q459,554 459,465 M430,465 Q430,542 376.5,595 Q323,648 247,648 Q171,648 117.5,595 Q64,542 64,465 Q64,390 117.5,336 Q171,282 247,282 Q323,282 376.5,336 Q430,390 430,465 M345,343 L305,343 L242,439 L198,439 L198,343 L166,343 L166,586 L265,586 Q297,586 319.5,565.5 Q342,545 342,512 Q342,477 319.5,458.5 Q297,440 280,440 M309,512 Q309,531 295.5,544.5 Q282,558 265,558 L198,558 L198,468 L265,468 Q281,468 295,481 Q309,494 309,512"/> 
            <glyph glyph-name="¯" unicode="&#xAF;" horiz-adv-x="363" d=" M363,591 L0,591 L0,639 L363,639"/> 
            <glyph glyph-name="°" unicode="&#xB0;" horiz-adv-x="267" d=" M267,555 Q267,504 231,468.5 Q195,433 145,433 Q94,433 58.5,468.5 Q23,504 23,555 Q23,605 58.5,641 Q94,677 145,677 Q195,677 231,641 Q267,605 267,555 M219,525 Q219,585 197,607 Q175,629 145,629 Q115,629 93.5,607 Q72,585 72,555 Q72,524 93,503 Q114,482 145,482 Q175,482 219,525"/> 
            <glyph glyph-name="±" unicode="&#xB1;" horiz-adv-x="470" d=" M470,324 L278,324 L278,111 L221,111 L221,324 L29,324 L29,376 L221,376 L221,583 L278,583 L278,376 L470,376 M470,0 L29,0 L29,53 L470,53"/> 
            <glyph glyph-name="²" unicode="&#xB2;" horiz-adv-x="341" d=" M341,421 L50,421 L50,466 Q175,556 227,607.5 Q279,659 279,705 Q279,741 254,759.5 Q229,778 194,778 Q159,778 129,763 Q99,748 82,726 L49,764 Q99,827 196,827 Q256,827 297.5,797 Q339,767 339,709 Q339,654 289,598.5 Q239,543 138,470 L341,470"/> 
            <glyph glyph-name="³" unicode="&#xB3;" horiz-adv-x="343" d=" M343,530 Q343,478 302.5,446 Q262,414 192,414 Q89,414 42,479 L75,517 Q118,463 191,463 Q234,463 258.5,482 Q283,501 283,533 Q283,602 179,602 Q145,602 139,601 L139,651 Q146,650 179,650 Q277,650 277,714 Q277,744 251.5,761 Q226,778 187,778 Q123,778 78,730 L47,765 Q102,827 193,827 Q257,827 296.5,798 Q336,769 336,720 Q336,680 309,656.5 Q282,633 247,628 Q282,624 312.5,598.5 Q343,573 343,530"/> 
            <glyph glyph-name="´" unicode="&#xB4;" horiz-adv-x="226" d=" M226,700 L57,556 L0,556 L148,700"/> 
            <glyph glyph-name="µ" unicode="&#xB5;" horiz-adv-x="476" d=" M150,-184 L75,-184 L75,483 L150,483 L150,165 Q150,104 178,78.5 Q206,53 259,53 Q300,53 339.5,75 Q379,97 401,128 L401,483 L476,483 L476,0 L401,0 L401,68 Q371,34 325.5,11 Q280,-12 229,-12 Q183,-12 150,2"/> 
            <glyph glyph-name="¶" unicode="&#xB6;" horiz-adv-x="378" d=" M378,-100 L333,-100 L333,622 L244,622 L244,-100 L199,-100 L199,323 Q128,323 77.5,373.5 Q27,424 27,495 Q27,566 77.5,616.5 Q128,667 199,667 L378,667"/> 
            <glyph glyph-name="·" unicode="&#xB7;" horiz-adv-x="170" d=" M170,245 Q170,222 154,206 Q138,190 115,190 Q92,190 76,206 Q60,222 60,245 Q60,267 76.5,283 Q93,299 115,299 Q137,299 153.5,283 Q170,267 170,245"/> 
            <glyph glyph-name="¸" unicode="&#xB8;" horiz-adv-x="205" d=" M101,-191 Q38,-191 0,-161 L19,-123 Q55,-152 99,-152 Q125,-152 142.5,-141 Q160,-130 160,-110 Q160,-75 123,-75 Q99,-75 85,-92 L52,-73 L83,11 L128,11 L102,-55 Q116,-44 139,-44 Q168,-44 186.5,-62.5 Q205,-81 205,-111 Q205,-147 175.5,-169 Q146,-191 101,-191"/> 
            <glyph glyph-name="¹" unicode="&#xB9;" horiz-adv-x="175" d=" M175,421 L115,421 L115,743 L49,674 L14,711 L122,821 L175,821"/> 
            <glyph glyph-name="º" unicode="&#xBA;" horiz-adv-x="365" d=" M202,318 Q130,318 85,366 Q40,414 40,483 Q40,553 84.5,600.5 Q129,648 202,648 Q276,648 320.5,600.5 Q365,553 365,483 Q365,413 320.5,365.5 Q276,318 202,318 M202,366 Q250,366 278,399.5 Q306,433 306,483 Q306,533 278,566 Q250,599 202,599 Q155,599 127.5,566 Q100,533 100,483 Q100,432 127.5,399 Q155,366 202,366"/> 
            <glyph glyph-name="»" unicode="&#xBB;" horiz-adv-x="409" d=" M265,243 L105,63 L30,63 L190,243 L30,420 L105,420 M409,243 L249,63 L174,63 L334,243 L174,420 L249,420"/> 
            <glyph glyph-name="¼" unicode="&#xBC;" horiz-adv-x="733" d=" M590,667 L163,0 L109,0 L535,667 M733,100 L676,100 L676,0 L616,0 L616,100 L420,100 L420,145 L593,400 L676,400 L676,149 L733,149 M616,149 L616,347 L480,149 M175,267 L115,267 L115,589 L49,520 L14,557 L122,667 L175,667"/> 
            <glyph glyph-name="½" unicode="&#xBD;" horiz-adv-x="760" d=" M590,667 L163,0 L109,0 L535,667 M760,0 L469,0 L469,45 Q594,135 646,186.5 Q698,238 698,284 Q698,320 673,338.5 Q648,357 613,357 Q578,357 548,342 Q518,327 501,305 L468,343 Q518,406 615,406 Q675,406 716.5,376 Q758,346 758,288 Q758,233 708,177.5 Q658,122 557,49 L760,49 M175,267 L115,267 L115,589 L49,520 L14,557 L122,667 L175,667"/> 
            <glyph glyph-name="¾" unicode="&#xBE;" horiz-adv-x="842" d=" M698,667 L271,0 L217,0 L643,667 M842,100 L785,100 L785,0 L725,0 L725,100 L529,100 L529,145 L702,400 L785,400 L785,149 L842,149 M725,149 L725,347 L589,149 M343,376 Q343,324 302.5,292 Q262,260 192,260 Q89,260 42,325 L75,363 Q118,309 191,309 Q234,309 258.5,328 Q283,347 283,379 Q283,448 179,448 Q145,448 139,447 L139,497 Q146,496 179,496 Q277,496 277,560 Q277,590 251.5,607 Q226,624 187,624 Q123,624 78,576 L47,611 Q102,673 193,673 Q257,673 296.5,644 Q336,615 336,566 Q336,526 309,502.5 Q282,479 247,474 Q282,470 312.5,444.5 Q343,419 343,376"/> 
            <glyph glyph-name="¿" unicode="&#xBF;" horiz-adv-x="444" d=" M259,296 Q297,264 297,214 Q297,179 278.5,151 Q260,123 233.5,103.5 Q207,84 180.5,66 Q154,48 135.5,24 Q117,0 117,-29 Q117,-69 147.5,-95.5 Q178,-122 234,-122 Q333,-122 394,-41 L444,-94 Q366,-196 227,-196 Q138,-196 84.5,-151.5 Q31,-107 31,-41 Q31,1 51,34.5 Q71,68 99,89 Q127,110 155.5,129 Q184,148 204,171 Q224,194 224,221 Q224,251 198,269 M216,493 Q260,493 276.5,476.5 Q293,460 293,438 Q293,416 276.5,399.5 Q260,383 238,383 Q216,383 199.5,399.5 Q183,416 183,438 Q183,460 216,493"/> 
            <glyph glyph-name="À" unicode="&#xC0;" horiz-adv-x="649" d=" M396,728 L339,728 L170,872 L248,872 M649,0 L554,0 L495,149 L163,149 L104,0 L9,0 L278,667 L381,667 M471,222 L329,582 L188,222"/> 
            <glyph glyph-name="Á" unicode="&#xC1;" horiz-adv-x="649" d=" M490,872 L321,728 L264,728 L412,872 M649,0 L554,0 L495,149 L163,149 L104,0 L9,0 L278,667 L381,667 M471,222 L329,582 L188,222"/> 
            <glyph glyph-name="Â" unicode="&#xC2;" horiz-adv-x="649" d=" M463,728 L412,728 L329,834 L249,728 L198,728 L293,872 L365,872 M649,0 L554,0 L495,149 L163,149 L104,0 L9,0 L278,667 L381,667 M471,222 L329,582 L188,222"/> 
            <glyph glyph-name="Ã" unicode="&#xC3;" horiz-adv-x="649" d=" M389,726 Q365,726 346.5,740.5 Q328,755 318.5,772 Q309,789 295.5,803.5 Q282,818 266,818 Q245,818 231.5,796.5 Q218,775 218,732 L173,732 Q173,792 198.5,829 Q224,866 270,866 Q294,866 312.5,851.5 Q331,837 340.5,820 Q350,803 363.5,788.5 Q377,774 393,774 Q414,774 427.5,795.5 Q441,817 441,860 L486,860 Q486,800 460.5,763 Q435,726 389,726 M649,0 L554,0 L495,149 L163,149 L104,0 L9,0 L278,667 L381,667 M471,222 L329,582 L188,222"/> 
            <glyph glyph-name="Ä" unicode="&#xC4;" horiz-adv-x="649" d=" M480,792 Q480,754 466,740.5 Q452,727 433,727 Q414,727 400.5,740.5 Q387,754 387,773 Q387,792 400.5,805.5 Q414,819 433,819 Q453,819 480,792 M273,792 Q273,754 259.5,740.5 Q246,727 227,727 Q208,727 194,740.5 Q180,754 180,773 Q180,792 193.5,805.5 Q207,819 227,819 Q246,819 273,792 M649,0 L554,0 L495,149 L163,149 L104,0 L9,0 L278,667 L381,667 M471,222 L329,582 L188,222"/> 
            <glyph glyph-name="Å" unicode="&#xC5;" horiz-adv-x="649" d=" M370,692 Q290,692 260.5,721 Q231,750 231,791 Q231,832 260.5,861 Q290,890 330,890 Q370,890 398.5,861 Q427,832 427,791 Q427,750 370,692 M330,732 Q354,732 371,749.5 Q388,767 388,791 Q388,815 371,832.5 Q354,850 330,850 Q305,850 288,832.5 Q271,815 271,791 Q271,767 288,749.5 Q305,732 330,732 M649,0 L554,0 L495,149 L163,149 L104,0 L9,0 L278,667 L381,667 M471,222 L329,582 L188,222"/> 
            <glyph glyph-name="Æ" unicode="&#xC6;" horiz-adv-x="893" d=" M893,0 L456,0 L456,149 L194,149 L102,0 L7,0 L423,667 L893,667 L893,593 L539,593 L539,378 L886,378 L886,304 L539,304 L539,74 L893,74 M456,222 L456,582 L234,222"/> 
            <glyph glyph-name="Ç" unicode="&#xC7;" horiz-adv-x="648" d=" M388,-187 Q324,-187 287,-157 L306,-119 Q342,-148 386,-148 Q412,-148 429.5,-137 Q447,-126 447,-106 Q447,-71 410,-71 Q386,-71 372,-88 L339,-69 L360,-10 Q226,1 138.5,95.5 Q51,190 51,333 Q51,485 149.5,581.5 Q248,678 394,678 Q555,678 647,546 L578,507 Q549,551 499.5,577.5 Q450,604 394,604 Q283,604 210,528 Q137,452 137,333 Q137,215 210.5,138.5 Q284,62 394,62 Q450,62 499.5,89 Q549,116 578,159 L648,121 Q553,-8 404,-12 L389,-51 Q403,-40 426,-40 Q455,-40 473.5,-58.5 Q492,-77 492,-107 Q492,-143 462.5,-165 Q433,-187 388,-187"/> 
            <glyph glyph-name="È" unicode="&#xC8;" horiz-adv-x="515" d=" M363,728 L306,728 L137,872 L215,872 M515,0 L78,0 L78,667 L515,667 L515,593 L161,593 L161,378 L508,378 L508,304 L161,304 L161,74 L515,74"/> 
            <glyph glyph-name="É" unicode="&#xC9;" horiz-adv-x="515" d=" M456,872 L287,728 L230,728 L378,872 M515,0 L78,0 L78,667 L515,667 L515,593 L161,593 L161,378 L508,378 L508,304 L161,304 L161,74 L515,74"/> 
            <glyph glyph-name="Ê" unicode="&#xCA;" horiz-adv-x="515" d=" M428,728 L377,728 L294,834 L214,728 L163,728 L258,872 L330,872 M515,0 L78,0 L78,667 L515,667 L515,593 L161,593 L161,378 L508,378 L508,304 L161,304 L161,74 L515,74"/> 
            <glyph glyph-name="Ë" unicode="&#xCB;" horiz-adv-x="515" d=" M446,792 Q446,754 432,740.5 Q418,727 399,727 Q380,727 366.5,740.5 Q353,754 353,773 Q353,792 366.5,805.5 Q380,819 399,819 Q419,819 446,792 M239,792 Q239,754 225.5,740.5 Q212,727 193,727 Q174,727 160,740.5 Q146,754 146,773 Q146,792 159.5,805.5 Q173,819 193,819 Q212,819 239,792 M515,0 L78,0 L78,667 L515,667 L515,593 L161,593 L161,378 L508,378 L508,304 L161,304 L161,74 L515,74"/> 
            <glyph glyph-name="Ì" unicode="&#xCC;" horiz-adv-x="185" d=" M185,728 L128,728 L-41,872 L37,872 M161,0 L78,0 L78,667 L161,667"/> 
            <glyph glyph-name="Í" unicode="&#xCD;" horiz-adv-x="281" d=" M281,872 L112,728 L55,728 L203,872 M161,0 L78,0 L78,667 L161,667"/> 
            <glyph glyph-name="Î" unicode="&#xCE;" horiz-adv-x="252" d=" M252,728 L201,728 L118,834 L38,728 L-13,728 L82,872 L154,872 M161,0 L78,0 L78,667 L161,667"/> 
            <glyph glyph-name="Ï" unicode="&#xCF;" horiz-adv-x="269" d=" M269,792 Q269,754 255,740.5 Q241,727 222,727 Q203,727 189.5,740.5 Q176,754 176,773 Q176,792 189.5,805.5 Q203,819 222,819 Q242,819 269,792 M62,792 Q62,754 48.5,740.5 Q35,727 16,727 Q-3,727 -17,740.5 Q-31,754 -31,773 Q-31,792 -17.5,805.5 Q-4,819 16,819 Q35,819 62,792 M161,0 L78,0 L78,667 L161,667"/> 
            <glyph glyph-name="Ð" unicode="&#xD0;" horiz-adv-x="676" d=" M334,0 L106,0 L106,299 L10,299 L10,360 L106,360 L106,667 L334,667 Q487,667 581.5,572 Q676,477 676,333 Q676,188 582,94 Q488,0 334,0 M358,299 L189,299 L189,74 L334,74 Q452,74 521,148 Q590,222 590,333 Q590,445 522,519 Q454,593 334,593 L189,593 L189,360 L358,360"/> 
            <glyph glyph-name="Ñ" unicode="&#xD1;" horiz-adv-x="630" d=" M412,726 Q388,726 369.5,740.5 Q351,755 341.5,772 Q332,789 318.5,803.5 Q305,818 289,818 Q268,818 254.5,796.5 Q241,775 241,732 L196,732 Q196,792 221.5,829 Q247,866 293,866 Q317,866 335.5,851.5 Q354,837 363.5,820 Q373,803 386.5,788.5 Q400,774 416,774 Q437,774 450.5,795.5 Q464,817 464,860 L509,860 Q509,800 483.5,763 Q458,726 412,726 M630,0 L550,0 L161,532 L161,0 L78,0 L78,667 L163,667 L547,146 L547,667 L630,667"/> 
            <glyph glyph-name="Ò" unicode="&#xD2;" horiz-adv-x="714" d=" M452,728 L395,728 L226,872 L304,872 M528,-12 Q236,-12 143.5,86 Q51,184 51,333 Q51,482 143.5,580 Q236,678 382,678 Q528,678 621,580 Q714,482 714,333 Q714,184 528,-12 M382,62 Q492,62 560,138.5 Q628,215 628,333 Q628,451 560,527.5 Q492,604 382,604 Q271,604 204,528 Q137,452 137,333 Q137,215 204,138.5 Q271,62 382,62"/> 
            <glyph glyph-name="Ó" unicode="&#xD3;" horiz-adv-x="714" d=" M544,872 L375,728 L318,728 L466,872 M528,-12 Q236,-12 143.5,86 Q51,184 51,333 Q51,482 143.5,580 Q236,678 382,678 Q528,678 621,580 Q714,482 714,333 Q714,184 528,-12 M382,62 Q492,62 560,138.5 Q628,215 628,333 Q628,451 560,527.5 Q492,604 382,604 Q271,604 204,528 Q137,452 137,333 Q137,215 204,138.5 Q271,62 382,62"/> 
            <glyph glyph-name="Ô" unicode="&#xD4;" horiz-adv-x="714" d=" M517,728 L466,728 L383,834 L303,728 L252,728 L347,872 L419,872 M528,-12 Q236,-12 143.5,86 Q51,184 51,333 Q51,482 143.5,580 Q236,678 382,678 Q528,678 621,580 Q714,482 714,333 Q714,184 528,-12 M382,62 Q492,62 560,138.5 Q628,215 628,333 Q628,451 560,527.5 Q492,604 382,604 Q271,604 204,528 Q137,452 137,333 Q137,215 204,138.5 Q271,62 382,62"/> 
            <glyph glyph-name="Õ" unicode="&#xD5;" horiz-adv-x="714" d=" M442,726 Q418,726 399.5,740.5 Q381,755 371.5,772 Q362,789 348.5,803.5 Q335,818 319,818 Q298,818 284.5,796.5 Q271,775 271,732 L226,732 Q226,792 251.5,829 Q277,866 323,866 Q347,866 365.5,851.5 Q384,837 393.5,820 Q403,803 416.5,788.5 Q430,774 446,774 Q467,774 480.5,795.5 Q494,817 494,860 L539,860 Q539,800 513.5,763 Q488,726 442,726 M528,-12 Q236,-12 143.5,86 Q51,184 51,333 Q51,482 143.5,580 Q236,678 382,678 Q528,678 621,580 Q714,482 714,333 Q714,184 528,-12 M382,62 Q492,62 560,138.5 Q628,215 628,333 Q628,451 560,527.5 Q492,604 382,604 Q271,604 204,528 Q137,452 137,333 Q137,215 204,138.5 Q271,62 382,62"/> 
            <glyph glyph-name="Ö" unicode="&#xD6;" horiz-adv-x="714" d=" M532,792 Q532,754 518,740.5 Q504,727 485,727 Q466,727 452.5,740.5 Q439,754 439,773 Q439,792 452.5,805.5 Q466,819 485,819 Q505,819 532,792 M325,792 Q325,754 311.5,740.5 Q298,727 279,727 Q260,727 246,740.5 Q232,754 232,773 Q232,792 245.5,805.5 Q259,819 279,819 Q298,819 325,792 M528,-12 Q236,-12 143.5,86 Q51,184 51,333 Q51,482 143.5,580 Q236,678 382,678 Q528,678 621,580 Q714,482 714,333 Q714,184 528,-12 M382,62 Q492,62 560,138.5 Q628,215 628,333 Q628,451 560,527.5 Q492,604 382,604 Q271,604 204,528 Q137,452 137,333 Q137,215 204,138.5 Q271,62 382,62"/> 
            <glyph glyph-name="×" unicode="&#xD7;" horiz-adv-x="435" d=" M398,148 L249,297 L101,148 L64,185 L213,334 L64,483 L101,520 L249,371 L398,520 L435,483 L287,334 L435,185"/> 
            <glyph glyph-name="Ø" unicode="&#xD8;" horiz-adv-x="714" d=" M382,-12 Q286,-12 210,33 L188,0 L121,0 L165,65 Q51,163 51,333 Q51,482 143.5,580 Q236,678 382,678 Q474,678 549,636 L570,667 L637,667 L595,604 Q651,557 682.5,486.5 Q714,416 714,333 Q714,184 621,86 Q528,-12 382,-12 M382,62 Q492,62 560,138.5 Q628,215 628,333 Q628,462 550,538 L253,97 Q308,62 382,62 M137,333 Q137,208 210,132 L506,572 Q450,604 382,604 Q271,604 204,528 Q137,452 137,333"/> 
            <glyph glyph-name="Ù" unicode="&#xD9;" horiz-adv-x="623" d=" M418,728 L361,728 L192,872 L270,872 M350,-12 Q218,-12 148,60.5 Q78,133 78,259 L78,667 L162,667 L162,261 Q162,168 210.5,115 Q259,62 350,62 Q441,62 490,115 Q539,168 539,261 L539,667 L623,667 L623,260 Q623,133 553,60.5 Q483,-12 350,-12"/> 
            <glyph glyph-name="Ú" unicode="&#xDA;" horiz-adv-x="623" d=" M510,872 L341,728 L284,728 L432,872 M350,-12 Q218,-12 148,60.5 Q78,133 78,259 L78,667 L162,667 L162,261 Q162,168 210.5,115 Q259,62 350,62 Q441,62 490,115 Q539,168 539,261 L539,667 L623,667 L623,260 Q623,133 553,60.5 Q483,-12 350,-12"/> 
            <glyph glyph-name="Û" unicode="&#xDB;" horiz-adv-x="623" d=" M488,728 L437,728 L354,834 L274,728 L223,728 L318,872 L390,872 M350,-12 Q218,-12 148,60.5 Q78,133 78,259 L78,667 L162,667 L162,261 Q162,168 210.5,115 Q259,62 350,62 Q441,62 490,115 Q539,168 539,261 L539,667 L623,667 L623,260 Q623,133 553,60.5 Q483,-12 350,-12"/> 
            <glyph glyph-name="Ü" unicode="&#xDC;" horiz-adv-x="623" d=" M501,792 Q501,754 487,740.5 Q473,727 454,727 Q435,727 421.5,740.5 Q408,754 408,773 Q408,792 421.5,805.5 Q435,819 454,819 Q474,819 501,792 M294,792 Q294,754 280.5,740.5 Q267,727 248,727 Q229,727 215,740.5 Q201,754 201,773 Q201,792 214.5,805.5 Q228,819 248,819 Q267,819 294,792 M350,-12 Q218,-12 148,60.5 Q78,133 78,259 L78,667 L162,667 L162,261 Q162,168 210.5,115 Q259,62 350,62 Q441,62 490,115 Q539,168 539,261 L539,667 L623,667 L623,260 Q623,133 553,60.5 Q483,-12 350,-12"/> 
            <glyph glyph-name="Ý" unicode="&#xDD;" horiz-adv-x="617" d=" M477,872 L308,728 L251,728 L399,872 M355,0 L272,0 L272,282 L9,667 L106,667 L313,357 L520,667 L617,667 L355,282"/> 
            <glyph glyph-name="Þ" unicode="&#xDE;" horiz-adv-x="555" d=" M161,0 L78,0 L78,667 L161,667 L161,548 L346,548 Q443,548 499,490 Q555,432 555,346 Q555,261 498.5,203.5 Q442,146 346,146 L161,146 M336,220 Q395,220 432,255 Q469,290 469,346 Q469,402 432,438 Q395,474 336,474 L161,474 L161,220"/> 
            <glyph glyph-name="ß" unicode="&#xDF;" horiz-adv-x="578" d=" M578,135 Q578,73 529.5,30.5 Q481,-12 392,-12 Q326,-12 285,8 Q244,28 206,66 L244,118 Q266,88 305,69 Q344,50 392,50 Q447,50 476,74 Q505,98 505,133 Q505,165 475.5,183.5 Q446,202 404,212 Q362,222 319.5,235 Q277,248 247.5,278 Q218,308 218,357 Q218,393 241,422 Q264,451 291,466 Q318,481 341,501.5 Q364,522 364,543 Q364,574 334,592 Q304,610 265,610 Q216,610 183.5,579.5 Q151,549 151,499 L151,0 L76,0 L76,499 Q76,575 128,626 Q180,677 266,677 Q338,677 389.5,642.5 Q441,608 441,551 Q441,521 425.5,497.5 Q410,474 388,459 Q366,444 344,430 Q322,416 306.5,397.5 Q291,379 291,357 Q291,329 320.5,313 Q350,297 392,287.5 Q434,278 476.5,265 Q519,252 548.5,219.5 Q578,187 578,135"/> 
            <glyph glyph-name="à" unicode="&#xE0;" horiz-adv-x="452" d=" M452,0 L377,0 L377,55 Q318,-12 217,-12 Q151,-12 100,31 Q49,74 49,148 Q49,225 99,266 Q149,307 217,307 Q319,307 377,242 L377,329 Q377,376 343,403 Q309,430 255,430 Q168,430 107,363 L72,415 Q149,495 265,495 Q348,495 400,455 Q452,415 452,332 M245,42 Q334,42 377,102 L377,194 Q333,253 245,253 Q192,253 158.5,223.5 Q125,194 125,148 Q125,101 158.5,71.5 Q192,42 245,42 M332,556 L275,556 L106,700 L184,700"/> 
            <glyph glyph-name="á" unicode="&#xE1;" horiz-adv-x="452" d=" M452,0 L377,0 L377,55 Q318,-12 217,-12 Q151,-12 100,31 Q49,74 49,148 Q49,225 99,266 Q149,307 217,307 Q319,307 377,242 L377,329 Q377,376 343,403 Q309,430 255,430 Q168,430 107,363 L72,415 Q149,495 265,495 Q348,495 400,455 Q452,415 452,332 M245,42 Q334,42 377,102 L377,194 Q333,253 245,253 Q192,253 158.5,223.5 Q125,194 125,148 Q125,101 158.5,71.5 Q192,42 245,42 M427,700 L258,556 L201,556 L349,700"/> 
            <glyph glyph-name="â" unicode="&#xE2;" horiz-adv-x="452" d=" M452,0 L377,0 L377,55 Q318,-12 217,-12 Q151,-12 100,31 Q49,74 49,148 Q49,225 99,266 Q149,307 217,307 Q319,307 377,242 L377,329 Q377,376 343,403 Q309,430 255,430 Q168,430 107,363 L72,415 Q149,495 265,495 Q348,495 400,455 Q452,415 452,332 M245,42 Q334,42 377,102 L377,194 Q333,253 245,253 Q192,253 158.5,223.5 Q125,194 125,148 Q125,101 158.5,71.5 Q192,42 245,42 M401,556 L350,556 L267,662 L187,556 L136,556 L231,700 L303,700"/> 
            <glyph glyph-name="ã" unicode="&#xE3;" horiz-adv-x="452" d=" M452,0 L377,0 L377,55 Q318,-12 217,-12 Q151,-12 100,31 Q49,74 49,148 Q49,225 99,266 Q149,307 217,307 Q319,307 377,242 L377,329 Q377,376 343,403 Q309,430 255,430 Q168,430 107,363 L72,415 Q149,495 265,495 Q348,495 400,455 Q452,415 452,332 M245,42 Q334,42 377,102 L377,194 Q333,253 245,253 Q192,253 158.5,223.5 Q125,194 125,148 Q125,101 158.5,71.5 Q192,42 245,42 M325,554 Q301,554 282.5,568.5 Q264,583 254.5,600 Q245,617 231.5,631.5 Q218,646 202,646 Q181,646 167.5,624.5 Q154,603 154,560 L109,560 Q109,620 134.5,657 Q160,694 206,694 Q230,694 248.5,679.5 Q267,665 276.5,648 Q286,631 299.5,616.5 Q313,602 329,602 Q350,602 363.5,623.5 Q377,645 377,688 L422,688 Q422,628 396.5,591 Q371,554 325,554"/> 
            <glyph glyph-name="ä" unicode="&#xE4;" horiz-adv-x="452" d=" M452,0 L377,0 L377,55 Q318,-12 217,-12 Q151,-12 100,31 Q49,74 49,148 Q49,225 99,266 Q149,307 217,307 Q319,307 377,242 L377,329 Q377,376 343,403 Q309,430 255,430 Q168,430 107,363 L72,415 Q149,495 265,495 Q348,495 400,455 Q452,415 452,332 M245,42 Q334,42 377,102 L377,194 Q333,253 245,253 Q192,253 158.5,223.5 Q125,194 125,148 Q125,101 158.5,71.5 Q192,42 245,42 M414,623 Q414,585 400,571.5 Q386,558 367,558 Q348,558 334.5,571.5 Q321,585 321,604 Q321,623 334.5,636.5 Q348,650 367,650 Q387,650 414,623 M207,623 Q207,585 193.5,571.5 Q180,558 161,558 Q142,558 128,571.5 Q114,585 114,604 Q114,623 127.5,636.5 Q141,650 161,650 Q180,650 207,623"/> 
            <glyph glyph-name="å" unicode="&#xE5;" horiz-adv-x="452" d=" M452,0 L377,0 L377,55 Q318,-12 217,-12 Q151,-12 100,31 Q49,74 49,148 Q49,225 99,266 Q149,307 217,307 Q319,307 377,242 L377,329 Q377,376 343,403 Q309,430 255,430 Q168,430 107,363 L72,415 Q149,495 265,495 Q348,495 400,455 Q452,415 452,332 M245,42 Q334,42 377,102 L377,194 Q333,253 245,253 Q192,253 158.5,223.5 Q125,194 125,148 Q125,101 158.5,71.5 Q192,42 245,42 M306,547 Q226,547 196.5,576.5 Q167,606 167,646 Q167,686 196.5,715.5 Q226,745 266,745 Q306,745 334.5,716 Q363,687 363,646 Q363,605 306,547 M266,587 Q290,587 307,604.5 Q324,622 324,646 Q324,670 307,687.5 Q290,705 266,705 Q241,705 224,687.5 Q207,670 207,646 Q207,622 224,604.5 Q241,587 266,587"/> 
            <glyph glyph-name="æ" unicode="&#xE6;" horiz-adv-x="843" d=" M843,217 L453,217 Q458,146 504.5,99 Q551,52 626,52 Q717,52 776,113 L812,63 Q735,-12 620,-12 Q492,-12 420,88 Q349,-12 221,-12 Q152,-12 100.5,31 Q49,74 49,148 Q49,223 98,265 Q147,307 217,307 Q319,307 377,243 L377,329 Q377,376 343,403 Q309,430 255,430 Q168,430 107,363 L72,415 Q149,495 265,495 Q405,495 429,389 Q489,495 614,495 Q719,495 781,421.5 Q843,348 843,236 M452,273 L769,273 Q768,334 727,383.5 Q686,433 610,433 Q538,433 496.5,384 Q455,335 452,273 M392,127 Q377,162 377,192 Q333,253 245,253 Q192,253 158.5,223.5 Q125,194 125,148 Q125,101 158.5,71.5 Q192,42 245,42 Q345,42 392,127"/> 
            <glyph glyph-name="ç" unicode="&#xE7;" horiz-adv-x="465" d=" M290,-189 Q226,-189 189,-159 L208,-121 Q244,-150 288,-150 Q314,-150 331.5,-139 Q349,-128 349,-108 Q349,-73 312,-73 Q288,-73 274,-90 L241,-71 L263,-10 Q166,-2 106.5,69 Q47,140 47,242 Q47,351 114,423 Q181,495 288,495 Q400,495 465,411 L415,366 Q370,428 292,428 Q217,428 171,375.5 Q125,323 125,242 Q125,160 171,107.5 Q217,55 292,55 Q368,55 415,118 L465,72 Q407,-4 307,-11 L291,-53 Q305,-42 328,-42 Q357,-42 375.5,-60.5 Q394,-79 394,-109 Q394,-145 364.5,-167 Q335,-189 290,-189"/> 
            <glyph glyph-name="è" unicode="&#xE8;" horiz-adv-x="517" d=" M294,-12 Q185,-12 116,58.5 Q47,129 47,242 Q47,348 115,421.5 Q183,495 285,495 Q392,495 454.5,421.5 Q517,348 517,236 L517,217 L127,217 Q132,146 178.5,98 Q225,50 300,50 Q390,50 450,112 L486,63 Q409,-12 294,-12 M443,273 Q442,334 401,383.5 Q360,433 284,433 Q212,433 170.5,384 Q129,335 126,273 M352,556 L295,556 L126,700 L204,700"/> 
            <glyph glyph-name="é" unicode="&#xE9;" horiz-adv-x="517" d=" M294,-12 Q185,-12 116,58.5 Q47,129 47,242 Q47,348 115,421.5 Q183,495 285,495 Q392,495 454.5,421.5 Q517,348 517,236 L517,217 L127,217 Q132,146 178.5,98 Q225,50 300,50 Q390,50 450,112 L486,63 Q409,-12 294,-12 M443,273 Q442,334 401,383.5 Q360,433 284,433 Q212,433 170.5,384 Q129,335 126,273 M446,700 L277,556 L220,556 L368,700"/> 
            <glyph glyph-name="ê" unicode="&#xEA;" horiz-adv-x="517" d=" M294,-12 Q185,-12 116,58.5 Q47,129 47,242 Q47,348 115,421.5 Q183,495 285,495 Q392,495 454.5,421.5 Q517,348 517,236 L517,217 L127,217 Q132,146 178.5,98 Q225,50 300,50 Q390,50 450,112 L486,63 Q409,-12 294,-12 M443,273 Q442,334 401,383.5 Q360,433 284,433 Q212,433 170.5,384 Q129,335 126,273 M419,556 L368,556 L285,662 L205,556 L154,556 L249,700 L321,700"/> 
            <glyph glyph-name="ë" unicode="&#xEB;" horiz-adv-x="517" d=" M294,-12 Q185,-12 116,58.5 Q47,129 47,242 Q47,348 115,421.5 Q183,495 285,495 Q392,495 454.5,421.5 Q517,348 517,236 L517,217 L127,217 Q132,146 178.5,98 Q225,50 300,50 Q390,50 450,112 L486,63 Q409,-12 294,-12 M443,273 Q442,334 401,383.5 Q360,433 284,433 Q212,433 170.5,384 Q129,335 126,273 M436,623 Q436,585 422,571.5 Q408,558 389,558 Q370,558 356.5,571.5 Q343,585 343,604 Q343,623 356.5,636.5 Q370,650 389,650 Q409,650 436,623 M229,623 Q229,585 215.5,571.5 Q202,558 183,558 Q164,558 150,571.5 Q136,585 136,604 Q136,623 149.5,636.5 Q163,650 183,650 Q202,650 229,623"/> 
            <glyph glyph-name="ì" unicode="&#xEC;" horiz-adv-x="178" d=" M178,556 L121,556 L-48,700 L30,700 M150,0 L75,0 L75,483 L150,483"/> 
            <glyph glyph-name="í" unicode="&#xED;" horiz-adv-x="273" d=" M273,700 L104,556 L47,556 L195,700 M150,0 L75,0 L75,483 L150,483"/> 
            <glyph glyph-name="î" unicode="&#xEE;" horiz-adv-x="246" d=" M246,556 L195,556 L112,662 L32,556 L-19,556 L76,700 L148,700 M150,0 L75,0 L75,483 L150,483"/> 
            <glyph glyph-name="ï" unicode="&#xEF;" horiz-adv-x="263" d=" M263,623 Q263,585 249,571.5 Q235,558 216,558 Q197,558 183.5,571.5 Q170,585 170,604 Q170,623 183.5,636.5 Q197,650 216,650 Q236,650 263,623 M56,623 Q56,585 42.5,571.5 Q29,558 10,558 Q-9,558 -23,571.5 Q-37,585 -37,604 Q-37,623 -23.5,636.5 Q-10,650 10,650 Q29,650 56,623 M150,0 L75,0 L75,483 L150,483"/> 
            <glyph glyph-name="ð" unicode="&#xF0;" horiz-adv-x="525" d=" M122,497 L104,539 L222,591 Q211,598 198.5,606 Q186,614 170.5,624 Q155,634 147,639 L188,701 Q255,660 300,625 L408,673 L425,632 L339,594 Q525,436 525,247 Q525,133 460,60.5 Q395,-12 286,-12 Q179,-12 113,58 Q47,128 47,234 Q47,340 109,409.5 Q171,479 267,479 Q365,479 425,391 Q375,481 265,561 M212,55 Q360,55 403,107 Q446,159 446,234 Q446,308 403,360 Q360,412 286,412 Q212,412 169,360 Q126,308 126,234 Q126,159 212,55"/> 
            <glyph glyph-name="ñ" unicode="&#xF1;" horiz-adv-x="479" d=" M479,0 L405,0 L405,316 Q405,377 377,402.5 Q349,428 296,428 Q254,428 215,406 Q176,384 153,353 L153,0 L78,0 L78,483 L153,483 L153,413 Q181,447 228,471 Q275,495 326,495 Q479,495 479,339 M336,554 Q312,554 293.5,568.5 Q275,583 265.5,600 Q256,617 242.5,631.5 Q229,646 213,646 Q192,646 178.5,624.5 Q165,603 165,560 L120,560 Q120,620 145.5,657 Q171,694 217,694 Q241,694 259.5,679.5 Q278,665 287.5,648 Q297,631 310.5,616.5 Q324,602 340,602 Q361,602 374.5,623.5 Q388,645 388,688 L433,688 Q433,628 407.5,591 Q382,554 336,554"/> 
            <glyph glyph-name="ò" unicode="&#xF2;" horiz-adv-x="525" d=" M394,-12 Q178,-12 112.5,61 Q47,134 47,242 Q47,350 112.5,422.5 Q178,495 286,495 Q394,495 459.5,422.5 Q525,350 525,242 Q525,134 394,-12 M212,55 Q360,55 403,109.5 Q446,164 446,242 Q446,320 403,374 Q360,428 286,428 Q212,428 169,374 Q126,320 126,242 Q126,164 212,55 M352,556 L295,556 L126,700 L204,700"/> 
            <glyph glyph-name="ó" unicode="&#xF3;" horiz-adv-x="525" d=" M394,-12 Q178,-12 112.5,61 Q47,134 47,242 Q47,350 112.5,422.5 Q178,495 286,495 Q394,495 459.5,422.5 Q525,350 525,242 Q525,134 394,-12 M212,55 Q360,55 403,109.5 Q446,164 446,242 Q446,320 403,374 Q360,428 286,428 Q212,428 169,374 Q126,320 126,242 Q126,164 212,55 M446,700 L277,556 L220,556 L368,700"/> 
            <glyph glyph-name="ô" unicode="&#xF4;" horiz-adv-x="525" d=" M394,-12 Q178,-12 112.5,61 Q47,134 47,242 Q47,350 112.5,422.5 Q178,495 286,495 Q394,495 459.5,422.5 Q525,350 525,242 Q525,134 394,-12 M212,55 Q360,55 403,109.5 Q446,164 446,242 Q446,320 403,374 Q360,428 286,428 Q212,428 169,374 Q126,320 126,242 Q126,164 212,55 M420,556 L369,556 L286,662 L206,556 L155,556 L250,700 L322,700"/> 
            <glyph glyph-name="õ" unicode="&#xF5;" horiz-adv-x="525" d=" M394,-12 Q178,-12 112.5,61 Q47,134 47,242 Q47,350 112.5,422.5 Q178,495 286,495 Q394,495 459.5,422.5 Q525,350 525,242 Q525,134 394,-12 M212,55 Q360,55 403,109.5 Q446,164 446,242 Q446,320 403,374 Q360,428 286,428 Q212,428 169,374 Q126,320 126,242 Q126,164 212,55 M346,554 Q322,554 303.5,568.5 Q285,583 275.5,600 Q266,617 252.5,631.5 Q239,646 223,646 Q202,646 188.5,624.5 Q175,603 175,560 L130,560 Q130,620 155.5,657 Q181,694 227,694 Q251,694 269.5,679.5 Q288,665 297.5,648 Q307,631 320.5,616.5 Q334,602 350,602 Q371,602 384.5,623.5 Q398,645 398,688 L443,688 Q443,628 417.5,591 Q392,554 346,554"/> 
            <glyph glyph-name="ö" unicode="&#xF6;" horiz-adv-x="525" d=" M394,-12 Q178,-12 112.5,61 Q47,134 47,242 Q47,350 112.5,422.5 Q178,495 286,495 Q394,495 459.5,422.5 Q525,350 525,242 Q525,134 394,-12 M212,55 Q360,55 403,109.5 Q446,164 446,242 Q446,320 403,374 Q360,428 286,428 Q212,428 169,374 Q126,320 126,242 Q126,164 212,55 M436,623 Q436,585 422,571.5 Q408,558 389,558 Q370,558 356.5,571.5 Q343,585 343,604 Q343,623 356.5,636.5 Q370,650 389,650 Q409,650 436,623 M229,623 Q229,585 215.5,571.5 Q202,558 183,558 Q164,558 150,571.5 Q136,585 136,604 Q136,623 149.5,636.5 Q163,650 183,650 Q202,650 229,623"/> 
            <glyph glyph-name="÷" unicode="&#xF7;" horiz-adv-x="482" d=" M302,546 Q302,508 288.5,494 Q275,480 256,480 Q237,480 223.5,494 Q210,508 210,527 Q210,546 223.5,559 Q237,572 256,572 Q275,572 302,546 M482,311 L29,311 L29,363 L482,363 M302,163 Q302,125 288.5,111.5 Q275,98 256,98 Q237,98 223.5,111.5 Q210,125 210,144 Q210,163 223.5,176.5 Q237,190 256,190 Q275,190 302,163"/> 
            <glyph glyph-name="ø" unicode="&#xF8;" horiz-adv-x="525" d=" M118,0 L64,0 L112,61 Q47,132 47,242 Q47,350 112.5,422.5 Q178,495 286,495 Q365,495 423,454 L446,483 L501,483 L456,426 Q525,354 525,242 Q525,134 459.5,61 Q394,-12 286,-12 Q203,-12 144,33 M286,55 Q360,55 403,109.5 Q446,164 446,242 Q446,316 408,366 L188,89 Q228,55 286,55 M126,242 Q126,170 160,121 L378,398 Q340,428 286,428 Q212,428 169,374 Q126,320 126,242"/> 
            <glyph glyph-name="ù" unicode="&#xF9;" horiz-adv-x="476" d=" M476,0 L401,0 L401,68 Q371,34 325.5,11 Q280,-12 229,-12 Q75,-12 75,142 L75,483 L150,483 L150,165 Q150,105 178,80 Q206,55 259,55 Q301,55 340,76 Q379,97 401,128 L401,483 L476,483 M344,556 L287,556 L118,700 L196,700"/> 
            <glyph glyph-name="ú" unicode="&#xFA;" horiz-adv-x="476" d=" M476,0 L401,0 L401,68 Q371,34 325.5,11 Q280,-12 229,-12 Q75,-12 75,142 L75,483 L150,483 L150,165 Q150,105 178,80 Q206,55 259,55 Q301,55 340,76 Q379,97 401,128 L401,483 L476,483 M437,700 L268,556 L211,556 L359,700"/> 
            <glyph glyph-name="û" unicode="&#xFB;" horiz-adv-x="476" d=" M476,0 L401,0 L401,68 Q371,34 325.5,11 Q280,-12 229,-12 Q75,-12 75,142 L75,483 L150,483 L150,165 Q150,105 178,80 Q206,55 259,55 Q301,55 340,76 Q379,97 401,128 L401,483 L476,483 M409,556 L358,556 L275,662 L195,556 L144,556 L239,700 L311,700"/> 
            <glyph glyph-name="ü" unicode="&#xFC;" horiz-adv-x="476" d=" M476,0 L401,0 L401,68 Q371,34 325.5,11 Q280,-12 229,-12 Q75,-12 75,142 L75,483 L150,483 L150,165 Q150,105 178,80 Q206,55 259,55 Q301,55 340,76 Q379,97 401,128 L401,483 L476,483 M429,623 Q429,585 415,571.5 Q401,558 382,558 Q363,558 349.5,571.5 Q336,585 336,604 Q336,623 349.5,636.5 Q363,650 382,650 Q402,650 429,623 M222,623 Q222,585 208.5,571.5 Q195,558 176,558 Q157,558 143,571.5 Q129,585 129,604 Q129,623 142.5,636.5 Q156,650 176,650 Q195,650 222,623"/> 
            <glyph glyph-name="ý" unicode="&#xFD;" horiz-adv-x="487" d=" M49,-189 L60,-121 Q78,-129 101,-129 Q127,-129 144,-118 Q161,-107 173,-78 L205,-5 L3,483 L85,483 L245,87 L406,483 L487,483 L245,-98 Q205,-194 103,-196 Q72,-196 49,-189 M406,700 L237,556 L180,556 L328,700"/> 
            <glyph glyph-name="þ" unicode="&#xFE;" horiz-adv-x="528" d=" M313,-12 Q214,-12 150,73 L150,-184 L75,-184 L75,667 L150,667 L150,411 Q177,449 220,472 Q263,495 313,495 Q409,495 468.5,426.5 Q528,358 528,242 Q528,126 468.5,57 Q409,-12 313,-12 M294,55 Q365,55 407,107.5 Q449,160 449,242 Q449,324 407,376 Q365,428 294,428 Q251,428 210.5,405.5 Q170,383 150,351 L150,133 Q170,100 210.5,77.5 Q251,55 294,55"/> 
            <glyph glyph-name="ÿ" unicode="&#xFF;" horiz-adv-x="487" d=" M49,-189 L60,-121 Q78,-129 101,-129 Q127,-129 144,-118 Q161,-107 173,-78 L205,-5 L3,483 L85,483 L245,87 L406,483 L487,483 L245,-98 Q205,-194 103,-196 Q72,-196 49,-189 M395,623 Q395,585 381,571.5 Q367,558 348,558 Q329,558 315.5,571.5 Q302,585 302,604 Q302,623 315.5,636.5 Q329,650 348,650 Q368,650 395,623 M188,623 Q188,585 174.5,571.5 Q161,558 142,558 Q123,558 109,571.5 Q95,585 95,604 Q95,623 108.5,636.5 Q122,650 142,650 Q161,650 188,623"/> 
            <glyph glyph-name="Ā" unicode="&#x100;" horiz-adv-x="649" d=" M649,0 L554,0 L495,149 L163,149 L104,0 L9,0 L278,667 L381,667 M471,222 L329,582 L188,222 M510,749 L147,749 L147,797 L510,797"/> 
            <glyph glyph-name="ā" unicode="&#x101;" horiz-adv-x="452" d=" M452,0 L377,0 L377,55 Q318,-12 217,-12 Q151,-12 100,31 Q49,74 49,148 Q49,225 99,266 Q149,307 217,307 Q319,307 377,242 L377,329 Q377,376 343,403 Q309,430 255,430 Q168,430 107,363 L72,415 Q149,495 265,495 Q348,495 400,455 Q452,415 452,332 M245,42 Q334,42 377,102 L377,194 Q333,253 245,253 Q192,253 158.5,223.5 Q125,194 125,148 Q125,101 158.5,71.5 Q192,42 245,42 M444,578 L81,578 L81,626 L444,626"/> 
            <glyph glyph-name="Ă" unicode="&#x102;" horiz-adv-x="649" d=" M649,0 L554,0 L495,149 L163,149 L104,0 L9,0 L278,667 L381,667 M471,222 L329,582 L188,222 M504,810 Q439,722 329,722 Q220,722 153,810 L191,842 Q242,770 329,770 Q417,770 468,842"/> 
            <glyph glyph-name="ă" unicode="&#x103;" horiz-adv-x="452" d=" M452,0 L377,0 L377,55 Q318,-12 217,-12 Q151,-12 100,31 Q49,74 49,148 Q49,225 99,266 Q149,307 217,307 Q319,307 377,242 L377,329 Q377,376 343,403 Q309,430 255,430 Q168,430 107,363 L72,415 Q149,495 265,495 Q348,495 400,455 Q452,415 452,332 M245,42 Q334,42 377,102 L377,194 Q333,253 245,253 Q192,253 158.5,223.5 Q125,194 125,148 Q125,101 158.5,71.5 Q192,42 245,42 M438,651 Q373,563 263,563 Q154,563 87,651 L125,683 Q176,611 263,611 Q351,611 402,683"/> 
            <glyph glyph-name="Ą" unicode="&#x104;" horiz-adv-x="705" d=" M668,-105 L705,-126 Q679,-186 617,-186 Q579,-186 553,-164 Q527,-142 527,-99 Q527,-42 580,0 L554,0 L495,149 L163,149 L104,0 L9,0 L278,667 L381,667 L649,0 L648,0 Q572,-38 572,-97 Q572,-147 617,-147 Q654,-147 668,-105 M471,222 L329,582 L188,222"/> 
            <glyph glyph-name="ą" unicode="&#x105;" horiz-adv-x="509" d=" M472,-105 L509,-126 Q483,-186 421,-186 Q383,-186 357,-164 Q331,-142 331,-99 Q331,-42 384,0 L377,0 L377,55 Q318,-12 217,-12 Q151,-12 100,31 Q49,74 49,148 Q49,225 99,266 Q149,307 217,307 Q319,307 377,242 L377,329 Q377,376 343,403 Q309,430 255,430 Q168,430 107,363 L72,415 Q149,495 265,495 Q348,495 400,455 Q452,415 452,332 L452,0 Q376,-38 376,-97 Q376,-147 421,-147 Q458,-147 472,-105 M245,42 Q334,42 377,102 L377,194 Q333,253 245,253 Q192,253 158.5,223.5 Q125,194 125,148 Q125,101 158.5,71.5 Q192,42 245,42"/> 
            <glyph glyph-name="Ć" unicode="&#x106;" horiz-adv-x="648" d=" M394,-12 Q248,-12 149.5,84.5 Q51,181 51,333 Q51,485 149.5,581.5 Q248,678 394,678 Q555,678 647,546 L578,507 Q549,551 499.5,577.5 Q450,604 394,604 Q283,604 210,528 Q137,452 137,333 Q137,215 210.5,138.5 Q284,62 394,62 Q450,62 499.5,89 Q549,116 578,159 L648,121 Q551,-12 394,-12 M554,872 L385,728 L328,728 L476,872"/> 
            <glyph glyph-name="ć" unicode="&#x107;" horiz-adv-x="465" d=" M288,-12 Q181,-12 114,60.5 Q47,133 47,242 Q47,351 114,423 Q181,495 288,495 Q400,495 465,411 L415,366 Q370,428 292,428 Q217,428 171,375.5 Q125,323 125,242 Q125,160 171,107.5 Q217,55 292,55 Q368,55 415,118 L465,72 Q400,-12 288,-12 M453,700 L284,556 L227,556 L375,700"/> 
            <glyph glyph-name="Ĉ" unicode="&#x108;" horiz-adv-x="648" d=" M394,-12 Q248,-12 149.5,84.5 Q51,181 51,333 Q51,485 149.5,581.5 Q248,678 394,678 Q555,678 647,546 L578,507 Q549,551 499.5,577.5 Q450,604 394,604 Q283,604 210,528 Q137,452 137,333 Q137,215 210.5,138.5 Q284,62 394,62 Q450,62 499.5,89 Q549,116 578,159 L648,121 Q551,-12 394,-12 M527,728 L476,728 L393,834 L313,728 L262,728 L357,872 L429,872"/> 
            <glyph glyph-name="ĉ" unicode="&#x109;" horiz-adv-x="465" d=" M288,-12 Q181,-12 114,60.5 Q47,133 47,242 Q47,351 114,423 Q181,495 288,495 Q400,495 465,411 L415,366 Q370,428 292,428 Q217,428 171,375.5 Q125,323 125,242 Q125,160 171,107.5 Q217,55 292,55 Q368,55 415,118 L465,72 Q400,-12 288,-12 M425,556 L374,556 L291,662 L211,556 L160,556 L255,700 L327,700"/> 
            <glyph glyph-name="Ċ" unicode="&#x10A;" horiz-adv-x="648" d=" M394,-12 Q248,-12 149.5,84.5 Q51,181 51,333 Q51,485 149.5,581.5 Q248,678 394,678 Q555,678 647,546 L578,507 Q549,551 499.5,577.5 Q450,604 394,604 Q283,604 210,528 Q137,452 137,333 Q137,215 210.5,138.5 Q284,62 394,62 Q450,62 499.5,89 Q549,116 578,159 L648,121 Q551,-12 394,-12 M396,727 Q377,727 363,741 Q349,755 349,774 Q349,793 363,807 Q377,821 396,821 Q416,821 429.5,807.5 Q443,794 443,774 Q443,754 429.5,740.5 Q416,727 396,727"/> 
            <glyph glyph-name="ċ" unicode="&#x10B;" horiz-adv-x="465" d=" M288,-12 Q181,-12 114,60.5 Q47,133 47,242 Q47,351 114,423 Q181,495 288,495 Q400,495 465,411 L415,366 Q370,428 292,428 Q217,428 171,375.5 Q125,323 125,242 Q125,160 171,107.5 Q217,55 292,55 Q368,55 415,118 L465,72 Q400,-12 288,-12 M290,573 Q271,573 257,587 Q243,601 243,620 Q243,639 257,653 Q271,667 290,667 Q310,667 323.5,653.5 Q337,640 337,620 Q337,600 323.5,586.5 Q310,573 290,573"/> 
            <glyph glyph-name="Č" unicode="&#x10C;" horiz-adv-x="648" d=" M394,-12 Q248,-12 149.5,84.5 Q51,181 51,333 Q51,485 149.5,581.5 Q248,678 394,678 Q555,678 647,546 L578,507 Q549,551 499.5,577.5 Q450,604 394,604 Q283,604 210,528 Q137,452 137,333 Q137,215 210.5,138.5 Q284,62 394,62 Q450,62 499.5,89 Q549,116 578,159 L648,121 Q551,-12 394,-12 M432,728 L360,728 L262,872 L313,872 L396,766 L476,872 L527,872"/> 
            <glyph glyph-name="č" unicode="&#x10D;" horiz-adv-x="465" d=" M288,-12 Q181,-12 114,60.5 Q47,133 47,242 Q47,351 114,423 Q181,495 288,495 Q400,495 465,411 L415,366 Q370,428 292,428 Q217,428 171,375.5 Q125,323 125,242 Q125,160 171,107.5 Q217,55 292,55 Q368,55 415,118 L465,72 Q400,-12 288,-12 M330,556 L258,556 L160,700 L211,700 L294,594 L374,700 L425,700"/> 
            <glyph glyph-name="Ď" unicode="&#x10E;" horiz-adv-x="648" d=" M306,0 L78,0 L78,667 L306,667 Q459,667 553.5,572 Q648,477 648,333 Q648,188 554,94 Q460,0 306,0 M306,74 Q424,74 493,148 Q562,222 562,333 Q562,445 494,519 Q426,593 306,593 L161,593 L161,74 M389,728 L317,728 L219,872 L270,872 L353,766 L433,872 L484,872"/> 
            <glyph glyph-name="ď" unicode="&#x10F;" horiz-adv-x="648" d=" M500,0 L425,0 L425,72 Q363,-12 262,-12 Q166,-12 106.5,56.5 Q47,125 47,241 Q47,356 107,425.5 Q167,495 262,495 Q362,495 425,410 L425,667 L500,667 M281,55 Q324,55 364.5,77.5 Q405,100 425,132 L425,350 Q405,383 364.5,405.5 Q324,428 281,428 Q209,428 167,375.5 Q125,323 125,241 Q125,159 167,107 Q209,55 281,55 M648,613 Q648,574 628,538 Q608,502 577,479 L545,505 Q567,520 583.5,544.5 Q600,569 602,591 L598,590 Q593,590 591,590 Q573,590 561,602.5 Q549,615 549,634 Q549,653 562.5,666.5 Q576,680 595,680 Q617,680 632.5,662 Q648,644 648,613"/> 
            <glyph glyph-name="Đ" unicode="&#x110;" horiz-adv-x="676" d=" M334,0 L106,0 L106,299 L10,299 L10,360 L106,360 L106,667 L334,667 Q487,667 581.5,572 Q676,477 676,333 Q676,188 582,94 Q488,0 334,0 M358,299 L189,299 L189,74 L334,74 Q452,74 521,148 Q590,222 590,333 Q590,445 522,519 Q454,593 334,593 L189,593 L189,360 L358,360"/> 
            <glyph glyph-name="đ" unicode="&#x111;" horiz-adv-x="568" d=" M500,0 L425,0 L425,72 Q363,-12 262,-12 Q166,-12 106.5,56.5 Q47,125 47,241 Q47,356 107,425.5 Q167,495 262,495 Q362,495 425,410 L425,535 L268,535 L268,583 L425,583 L425,667 L500,667 L500,583 L568,583 L568,535 L500,535 M281,55 Q324,55 364.5,77.5 Q405,100 425,132 L425,350 Q405,383 364.5,405.5 Q324,428 281,428 Q209,428 167,375.5 Q125,323 125,241 Q125,159 167,107 Q209,55 281,55"/> 
            <glyph glyph-name="Ē" unicode="&#x112;" horiz-adv-x="515" d=" M515,0 L78,0 L78,667 L515,667 L515,593 L161,593 L161,378 L508,378 L508,304 L161,304 L161,74 L515,74 M475,749 L112,749 L112,797 L475,797"/> 
            <glyph glyph-name="ē" unicode="&#x113;" horiz-adv-x="517" d=" M294,-12 Q185,-12 116,58.5 Q47,129 47,242 Q47,348 115,421.5 Q183,495 285,495 Q392,495 454.5,421.5 Q517,348 517,236 L517,217 L127,217 Q132,146 178.5,98 Q225,50 300,50 Q390,50 450,112 L486,63 Q409,-12 294,-12 M443,273 Q442,334 401,383.5 Q360,433 284,433 Q212,433 170.5,384 Q129,335 126,273 M463,578 L100,578 L100,626 L463,626"/> 
            <glyph glyph-name="Ĕ" unicode="&#x114;" horiz-adv-x="515" d=" M515,0 L78,0 L78,667 L515,667 L515,593 L161,593 L161,378 L508,378 L508,304 L161,304 L161,74 L515,74 M469,810 Q404,722 294,722 Q185,722 118,810 L156,842 Q207,770 294,770 Q382,770 433,842"/> 
            <glyph glyph-name="ĕ" unicode="&#x115;" horiz-adv-x="517" d=" M294,-12 Q185,-12 116,58.5 Q47,129 47,242 Q47,348 115,421.5 Q183,495 285,495 Q392,495 454.5,421.5 Q517,348 517,236 L517,217 L127,217 Q132,146 178.5,98 Q225,50 300,50 Q390,50 450,112 L486,63 Q409,-12 294,-12 M443,273 Q442,334 401,383.5 Q360,433 284,433 Q212,433 170.5,384 Q129,335 126,273 M463,651 Q398,563 288,563 Q179,563 112,651 L150,683 Q201,611 288,611 Q376,611 427,683"/> 
            <glyph glyph-name="Ė" unicode="&#x116;" horiz-adv-x="515" d=" M515,0 L78,0 L78,667 L515,667 L515,593 L161,593 L161,378 L508,378 L508,304 L161,304 L161,74 L515,74 M320,727 Q282,727 268,741 Q254,755 254,774 Q254,793 268,807 Q282,821 301,821 Q320,821 334,807.5 Q348,794 348,774 Q348,754 320,727"/> 
            <glyph glyph-name="ė" unicode="&#x117;" horiz-adv-x="517" d=" M294,-12 Q185,-12 116,58.5 Q47,129 47,242 Q47,348 115,421.5 Q183,495 285,495 Q392,495 454.5,421.5 Q517,348 517,236 L517,217 L127,217 Q132,146 178.5,98 Q225,50 300,50 Q390,50 450,112 L486,63 Q409,-12 294,-12 M443,273 Q442,334 401,383.5 Q360,433 284,433 Q212,433 170.5,384 Q129,335 126,273 M286,573 Q267,573 253,587 Q239,601 239,620 Q239,639 253,653 Q267,667 286,667 Q306,667 319.5,653.5 Q333,640 333,620 Q333,600 319.5,586.5 Q306,573 286,573"/> 
            <glyph glyph-name="Ę" unicode="&#x118;" horiz-adv-x="572" d=" M535,-105 L572,-126 Q546,-186 484,-186 Q446,-186 420,-164 Q394,-142 394,-99 Q394,-42 447,0 L78,0 L78,667 L515,667 L515,593 L161,593 L161,378 L508,378 L508,304 L161,304 L161,74 L515,74 L515,0 Q439,-38 439,-97 Q439,-147 484,-147 Q521,-147 535,-105"/> 
            <glyph glyph-name="ę" unicode="&#x119;" horiz-adv-x="517" d=" M294,-12 Q185,-12 116,58.5 Q47,129 47,242 Q47,348 115,421.5 Q183,495 285,495 Q392,495 454.5,421.5 Q517,348 517,236 L517,217 L127,217 Q132,146 178.5,98 Q225,50 300,50 Q390,50 450,112 L486,63 Q441,18 379,0 Q303,-38 303,-97 Q303,-147 348,-147 Q385,-147 399,-105 L436,-126 Q410,-186 348,-186 Q310,-186 284,-164 Q258,-142 258,-99 Q258,-51 297,-12 M443,273 Q442,334 401,383.5 Q360,433 284,433 Q212,433 170.5,384 Q129,335 126,273"/> 
            <glyph glyph-name="Ě" unicode="&#x11A;" horiz-adv-x="515" d=" M515,0 L78,0 L78,667 L515,667 L515,593 L161,593 L161,378 L508,378 L508,304 L161,304 L161,74 L515,74 M335,728 L263,728 L165,872 L216,872 L299,766 L379,872 L430,872"/> 
            <glyph glyph-name="ě" unicode="&#x11B;" horiz-adv-x="517" d=" M294,-12 Q185,-12 116,58.5 Q47,129 47,242 Q47,348 115,421.5 Q183,495 285,495 Q392,495 454.5,421.5 Q517,348 517,236 L517,217 L127,217 Q132,146 178.5,98 Q225,50 300,50 Q390,50 450,112 L486,63 Q409,-12 294,-12 M443,273 Q442,334 401,383.5 Q360,433 284,433 Q212,433 170.5,384 Q129,335 126,273 M323,556 L251,556 L153,700 L204,700 L287,594 L367,700 L418,700"/> 
            <glyph glyph-name="Ĝ" unicode="&#x11C;" horiz-adv-x="656" d=" M394,-13 Q249,-13 150,83.5 Q51,180 51,333 Q51,486 149.5,582 Q248,678 394,678 Q553,678 653,554 L587,512 Q555,554 503.5,579 Q452,604 394,604 Q283,604 210,528 Q137,452 137,333 Q137,215 210.5,138.5 Q284,62 394,62 Q449,62 497,83.5 Q545,105 574,134 L574,269 L344,269 L344,343 L656,343 L656,103 Q553,-13 394,-13 M531,728 L480,728 L397,834 L317,728 L266,728 L361,872 L433,872"/> 
            <glyph glyph-name="ĝ" unicode="&#x11D;" horiz-adv-x="500" d=" M269,-196 Q206,-196 161,-180 Q116,-164 74,-123 L112,-69 Q167,-134 269,-134 Q335,-134 380,-99.5 Q425,-65 425,7 L425,80 Q397,41 354,17.5 Q311,-6 262,-6 Q166,-6 106.5,61.5 Q47,129 47,244 Q47,359 106.5,427 Q166,495 262,495 Q362,495 425,410 L425,483 L500,483 L500,7 Q500,-99 434.5,-147.5 Q369,-196 269,-196 M281,61 Q324,61 364,83.5 Q404,106 425,139 L425,351 Q404,383 364,405.5 Q324,428 281,428 Q209,428 167,377 Q125,326 125,244 Q125,163 167,112 Q209,61 281,61 M423,549 L372,549 L289,655 L209,549 L158,549 L253,693 L325,693"/> 
            <glyph glyph-name="Ğ" unicode="&#x11E;" horiz-adv-x="656" d=" M394,-13 Q249,-13 150,83.5 Q51,180 51,333 Q51,486 149.5,582 Q248,678 394,678 Q553,678 653,554 L587,512 Q555,554 503.5,579 Q452,604 394,604 Q283,604 210,528 Q137,452 137,333 Q137,215 210.5,138.5 Q284,62 394,62 Q449,62 497,83.5 Q545,105 574,134 L574,269 L344,269 L344,343 L656,343 L656,103 Q553,-13 394,-13 M572,810 Q507,722 397,722 Q288,722 221,810 L259,842 Q310,770 397,770 Q485,770 536,842"/> 
            <glyph glyph-name="ğ" unicode="&#x11F;" horiz-adv-x="500" d=" M269,-196 Q206,-196 161,-180 Q116,-164 74,-123 L112,-69 Q167,-134 269,-134 Q335,-134 380,-99.5 Q425,-65 425,7 L425,80 Q397,41 354,17.5 Q311,-6 262,-6 Q166,-6 106.5,61.5 Q47,129 47,244 Q47,359 106.5,427 Q166,495 262,495 Q362,495 425,410 L425,483 L500,483 L500,7 Q500,-99 434.5,-147.5 Q369,-196 269,-196 M281,61 Q324,61 364,83.5 Q404,106 425,139 L425,351 Q404,383 364,405.5 Q324,428 281,428 Q209,428 167,377 Q125,326 125,244 Q125,163 167,112 Q209,61 281,61 M461,651 Q396,563 286,563 Q177,563 110,651 L148,683 Q199,611 286,611 Q374,611 425,683"/> 
            <glyph glyph-name="Ġ" unicode="&#x120;" horiz-adv-x="656" d=" M394,-13 Q249,-13 150,83.5 Q51,180 51,333 Q51,486 149.5,582 Q248,678 394,678 Q553,678 653,554 L587,512 Q555,554 503.5,579 Q452,604 394,604 Q283,604 210,528 Q137,452 137,333 Q137,215 210.5,138.5 Q284,62 394,62 Q449,62 497,83.5 Q545,105 574,134 L574,269 L344,269 L344,343 L656,343 L656,103 Q553,-13 394,-13 M396,727 Q377,727 363,741 Q349,755 349,774 Q349,793 363,807 Q377,821 396,821 Q416,821 429.5,807.5 Q443,794 443,774 Q443,754 429.5,740.5 Q416,727 396,727"/> 
            <glyph glyph-name="ġ" unicode="&#x121;" horiz-adv-x="500" d=" M269,-196 Q206,-196 161,-180 Q116,-164 74,-123 L112,-69 Q167,-134 269,-134 Q335,-134 380,-99.5 Q425,-65 425,7 L425,80 Q397,41 354,17.5 Q311,-6 262,-6 Q166,-6 106.5,61.5 Q47,129 47,244 Q47,359 106.5,427 Q166,495 262,495 Q362,495 425,410 L425,483 L500,483 L500,7 Q500,-99 434.5,-147.5 Q369,-196 269,-196 M281,61 Q324,61 364,83.5 Q404,106 425,139 L425,351 Q404,383 364,405.5 Q324,428 281,428 Q209,428 167,377 Q125,326 125,244 Q125,163 167,112 Q209,61 281,61 M308,573 Q270,573 256,587 Q242,601 242,620 Q242,639 256,653 Q270,667 289,667 Q308,667 322,653.5 Q336,640 336,620 Q336,600 308,573"/> 
            <glyph glyph-name="Ģ" unicode="&#x122;" horiz-adv-x="656" d=" M394,-13 Q249,-13 150,83.5 Q51,180 51,333 Q51,486 149.5,582 Q248,678 394,678 Q553,678 653,554 L587,512 Q555,554 503.5,579 Q452,604 394,604 Q283,604 210,528 Q137,452 137,333 Q137,215 210.5,138.5 Q284,62 394,62 Q449,62 497,83.5 Q545,105 574,134 L574,269 L344,269 L344,343 L656,343 L656,103 Q553,-13 394,-13 M449,-138 Q449,-177 429,-213 Q409,-249 378,-272 L346,-246 Q368,-231 384.5,-206.5 Q401,-182 403,-160 L398,-160 Q394,-161 392,-161 Q374,-161 362,-148.5 Q350,-136 350,-117 Q350,-98 363.5,-84.5 Q377,-71 396,-71 Q418,-71 433.5,-89 Q449,-107 449,-138"/> 
            <glyph glyph-name="ģ" unicode="&#x123;" horiz-adv-x="500" d=" M233,620 Q233,663 252.5,701.5 Q272,740 302,761 L335,734 Q313,720 296,696 Q279,672 278,651 Q280,652 283,652 Q300,652 314,638.5 Q328,625 328,606 Q328,588 314.5,574 Q301,560 281,560 Q262,560 247.5,575.5 Q233,591 233,620 M269,-196 Q206,-196 161,-180 Q116,-164 74,-123 L112,-69 Q167,-134 269,-134 Q335,-134 380,-99.5 Q425,-65 425,7 L425,80 Q397,41 354,17.5 Q311,-6 262,-6 Q166,-6 106.5,61.5 Q47,129 47,244 Q47,359 106.5,427 Q166,495 262,495 Q362,495 425,410 L425,483 L500,483 L500,7 Q500,-99 434.5,-147.5 Q369,-196 269,-196 M281,61 Q324,61 364,83.5 Q404,106 425,139 L425,351 Q404,383 364,405.5 Q324,428 281,428 Q209,428 167,377 Q125,326 125,244 Q125,163 167,112 Q209,61 281,61"/> 
            <glyph glyph-name="Ĥ" unicode="&#x124;" horiz-adv-x="634" d=" M634,0 L551,0 L551,306 L161,306 L161,0 L78,0 L78,667 L161,667 L161,380 L551,380 L551,667 L634,667 M486,728 L435,728 L352,834 L272,728 L221,728 L316,872 L388,872"/> 
            <glyph glyph-name="ĥ" unicode="&#x125;" horiz-adv-x="477" d=" M477,0 L402,0 L402,318 Q402,379 374,403.5 Q346,428 293,428 Q252,428 212.5,406 Q173,384 151,353 L151,0 L76,0 L76,667 L151,667 L151,413 Q178,447 225,471 Q272,495 323,495 Q477,495 477,341 M247,728 L196,728 L113,834 L33,728 L-18,728 L77,872 L149,872"/> 
            <glyph glyph-name="Ħ" unicode="&#x126;" horiz-adv-x="721" d=" M644,0 L561,0 L561,306 L171,306 L171,0 L88,0 L88,501 L10,501 L10,549 L88,549 L88,667 L171,667 L171,549 L561,549 L561,667 L644,667 L644,549 L721,549 L721,501 L644,501 M171,380 L561,380 L561,501 L171,501"/> 
            <glyph glyph-name="ħ" unicode="&#x127;" horiz-adv-x="480" d=" M309,535 L154,535 L154,413 Q181,447 228,471 Q275,495 326,495 Q480,495 480,341 L480,0 L405,0 L405,318 Q405,379 377,403.5 Q349,428 296,428 Q255,428 215.5,406 Q176,384 154,353 L154,0 L79,0 L79,535 L10,535 L10,583 L79,583 L79,667 L154,667 L154,583 L309,583"/> 
            <glyph glyph-name="Ĩ" unicode="&#x128;" horiz-adv-x="276" d=" M161,0 L78,0 L78,667 L161,667 M179,726 Q155,726 136.5,740.5 Q118,755 108.5,772 Q99,789 85.5,803.5 Q72,818 56,818 Q35,818 21.5,796.5 Q8,775 8,732 L-37,732 Q-37,792 -11.5,829 Q14,866 60,866 Q84,866 102.5,851.5 Q121,837 130.5,820 Q140,803 153.5,788.5 Q167,774 183,774 Q204,774 217.5,795.5 Q231,817 231,860 L276,860 Q276,800 250.5,763 Q225,726 179,726"/> 
            <glyph glyph-name="ĩ" unicode="&#x129;" horiz-adv-x="269" d=" M150,0 L75,0 L75,483 L150,483 M172,541 Q148,541 129.5,555.5 Q111,570 101.5,587 Q92,604 78.5,618.5 Q65,633 49,633 Q28,633 14.5,611.5 Q1,590 1,547 L-44,547 Q-44,607 -18.5,644 Q7,681 53,681 Q77,681 95.5,666.5 Q114,652 123.5,635 Q133,618 146.5,603.5 Q160,589 176,589 Q197,589 210.5,610.5 Q224,632 224,675 L269,675 Q269,615 243.5,578 Q218,541 172,541"/> 
            <glyph glyph-name="Ī" unicode="&#x12A;" horiz-adv-x="301" d=" M161,0 L78,0 L78,667 L161,667 M301,749 L-62,749 L-62,797 L301,797"/> 
            <glyph glyph-name="ī" unicode="&#x12B;" horiz-adv-x="295" d=" M150,0 L75,0 L75,483 L150,483 M295,578 L-68,578 L-68,626 L295,626"/> 
            <glyph glyph-name="Ĭ" unicode="&#x12C;" horiz-adv-x="297" d=" M161,0 L78,0 L78,667 L161,667 M297,810 Q232,722 122,722 Q13,722 -54,810 L-16,842 Q35,770 122,770 Q210,770 261,842"/> 
            <glyph glyph-name="ĭ" unicode="&#x12D;" horiz-adv-x="289" d=" M150,0 L75,0 L75,483 L150,483 M289,651 Q224,563 114,563 Q5,563 -62,651 L-24,683 Q27,611 114,611 Q202,611 253,683"/> 
            <glyph glyph-name="Į" unicode="&#x12E;" horiz-adv-x="218" d=" M181,-105 L218,-126 Q192,-186 130,-186 Q92,-186 66,-164 Q40,-142 40,-99 Q40,-42 93,0 L78,0 L78,667 L161,667 L161,0 Q85,-38 85,-97 Q85,-147 130,-147 Q167,-147 181,-105"/> 
            <glyph glyph-name="į" unicode="&#x12F;" horiz-adv-x="207" d=" M170,-105 L207,-126 Q181,-186 119,-186 Q81,-186 55,-164 Q29,-142 29,-99 Q29,-42 82,0 L75,0 L75,483 L150,483 L150,0 Q74,-38 74,-97 Q74,-147 119,-147 Q156,-147 170,-105 M134,552 Q92,552 77,566.5 Q62,581 62,602 Q62,623 77,638 Q92,653 113,653 Q134,653 148.5,638 Q163,623 163,602 Q163,581 134,552"/> 
            <glyph glyph-name="İ" unicode="&#x130;" horiz-adv-x="167" d=" M161,0 L78,0 L78,667 L161,667 M120,727 Q101,727 87,741 Q73,755 73,774 Q73,793 87,807 Q101,821 120,821 Q140,821 153.5,807.5 Q167,794 167,774 Q167,754 153.5,740.5 Q140,727 120,727"/> 
            <glyph glyph-name="ı" unicode="&#x131;" horiz-adv-x="150" d=" M150,0 L75,0 L75,483 L150,483"/> 
            <glyph glyph-name="Ĳ" unicode="&#x132;" horiz-adv-x="636" d=" M161,0 L78,0 L78,667 L161,667 M424,-12 Q316,-12 250,65 L294,128 Q347,62 419,62 Q480,62 516.5,100.5 Q553,139 553,202 L553,667 L636,667 L636,201 Q636,97 577,42.5 Q518,-12 424,-12"/> 
            <glyph glyph-name="ĳ" unicode="&#x133;" horiz-adv-x="388" d=" M134,552 Q92,552 77,566.5 Q62,581 62,602 Q62,623 77,638 Q92,653 113,653 Q134,653 148.5,638 Q163,623 163,602 Q163,581 134,552 M150,0 L75,0 L75,483 L150,483 M359,552 Q317,552 302,566.5 Q287,581 287,602 Q287,623 302,638 Q317,653 338,653 Q359,653 373.5,638 Q388,623 388,602 Q388,581 359,552 M232,-196 Q172,-196 127,-160 L153,-104 Q183,-134 222,-134 Q258,-134 279,-112.5 Q300,-91 300,-47 L300,483 L375,483 L375,-47 Q375,-119 338,-157.5 Q301,-196 232,-196"/> 
            <glyph glyph-name="Ĵ" unicode="&#x134;" horiz-adv-x="488" d=" M185,-12 Q77,-12 11,65 L55,128 Q108,62 180,62 Q241,62 277.5,100.5 Q314,139 314,202 L314,667 L397,667 L397,201 Q397,97 338,42.5 Q279,-12 185,-12 M488,728 L437,728 L354,834 L274,728 L223,728 L318,872 L390,872"/> 
            <glyph glyph-name="ĵ" unicode="&#x135;" horiz-adv-x="247" d=" M7,-196 Q-53,-196 -98,-160 L-72,-99 Q-42,-129 -3,-129 Q32,-129 53.5,-108 Q75,-87 75,-47 L75,483 L150,483 L150,-47 Q150,-119 113,-157.5 Q76,-196 7,-196 M247,556 L196,556 L113,662 L33,556 L-18,556 L77,700 L149,700"/> 
            <glyph glyph-name="Ķ" unicode="&#x136;" horiz-adv-x="585" d=" M585,0 L481,0 L228,300 L161,224 L161,0 L78,0 L78,667 L161,667 L161,323 L456,667 L560,667 L282,351 M360,-138 Q360,-177 340,-213 Q320,-249 289,-272 L257,-246 Q279,-231 295.5,-206.5 Q312,-182 314,-160 L310,-160 Q305,-161 303,-161 Q285,-161 273,-148.5 Q261,-136 261,-117 Q261,-98 274.5,-84.5 Q288,-71 307,-71 Q329,-71 344.5,-89 Q360,-107 360,-138"/> 
            <glyph glyph-name="ķ" unicode="&#x137;" horiz-adv-x="500" d=" M500,0 L404,0 L231,217 L150,138 L150,0 L75,0 L75,667 L150,667 L150,226 L404,483 L499,483 L285,264 M314,-138 Q314,-177 294,-213 Q274,-249 243,-272 L211,-246 Q233,-231 249.5,-206.5 Q266,-182 268,-160 L264,-160 Q259,-161 257,-161 Q239,-161 227,-148.5 Q215,-136 215,-117 Q215,-98 228.5,-84.5 Q242,-71 261,-71 Q283,-71 298.5,-89 Q314,-107 314,-138"/> 
            <glyph glyph-name="ĸ" unicode="&#x138;" horiz-adv-x="500" d=" M500,0 L404,0 L231,217 L150,138 L150,0 L75,0 L75,483 L150,483 L150,226 L404,483 L499,483 L285,264"/> 
            <glyph glyph-name="Ĺ" unicode="&#x139;" horiz-adv-x="460" d=" M460,0 L67,0 L67,667 L150,667 L150,74 L460,74 M423,872 L254,728 L197,728 L345,872"/> 
            <glyph glyph-name="ĺ" unicode="&#x13A;" horiz-adv-x="273" d=" M150,0 L75,0 L75,667 L150,667 M273,872 L104,728 L47,728 L195,872"/> 
            <glyph glyph-name="Ļ" unicode="&#x13B;" horiz-adv-x="460" d=" M460,0 L67,0 L67,667 L150,667 L150,74 L460,74 M302,-138 Q302,-177 282,-213 Q262,-249 231,-272 L199,-246 Q221,-231 237.5,-206.5 Q254,-182 256,-160 L252,-160 Q247,-161 245,-161 Q227,-161 215,-148.5 Q203,-136 203,-117 Q203,-98 216.5,-84.5 Q230,-71 249,-71 Q271,-71 286.5,-89 Q302,-107 302,-138"/> 
            <glyph glyph-name="ļ" unicode="&#x13C;" horiz-adv-x="170" d=" M150,0 L75,0 L75,667 L150,667 M170,-138 Q170,-177 150,-213 Q130,-249 99,-272 L67,-246 Q89,-231 105.5,-206.5 Q122,-182 124,-160 L120,-160 Q115,-161 113,-161 Q95,-161 83,-148.5 Q71,-136 71,-117 Q71,-98 84.5,-84.5 Q98,-71 117,-71 Q139,-71 154.5,-89 Q170,-107 170,-138"/> 
            <glyph glyph-name="Ľ" unicode="&#x13D;" horiz-adv-x="460" d=" M460,0 L67,0 L67,667 L150,667 L150,74 L460,74 M343,613 Q343,574 323,538 Q303,502 272,479 L240,505 Q262,520 278.5,544.5 Q295,569 297,591 L292,590 Q288,590 286,590 Q268,590 256,602.5 Q244,615 244,634 Q244,653 257.5,666.5 Q271,680 290,680 Q312,680 327.5,662 Q343,644 343,613"/> 
            <glyph glyph-name="ľ" unicode="&#x13E;" horiz-adv-x="311" d=" M150,0 L75,0 L75,667 L150,667 M311,613 Q311,574 291,538 Q271,502 240,479 L208,505 Q230,520 246.5,544.5 Q263,569 265,591 L260,590 Q256,590 254,590 Q236,590 224,602.5 Q212,615 212,634 Q212,653 225.5,666.5 Q239,680 258,680 Q280,680 295.5,662 Q311,644 311,613"/> 
            <glyph glyph-name="Ŀ" unicode="&#x13F;" horiz-adv-x="460" d=" M460,0 L67,0 L67,667 L150,667 L150,74 L460,74 M422,364 Q422,320 406,303.5 Q390,287 367,287 Q344,287 328,303.5 Q312,320 312,342 Q312,364 328.5,380 Q345,396 367,396 Q389,396 422,364"/> 
            <glyph glyph-name="ŀ" unicode="&#x140;" horiz-adv-x="321" d=" M150,0 L75,0 L75,667 L150,667 M321,245 Q321,222 304.5,206 Q288,190 266,190 Q244,190 227.5,206 Q211,222 211,245 Q211,267 227.5,283 Q244,299 266,299 Q288,299 304.5,283 Q321,267 321,245"/> 
            <glyph glyph-name="Ł" unicode="&#x141;" horiz-adv-x="491" d=" M10,221 L10,293 L98,344 L98,667 L181,667 L181,392 L277,447 L277,375 L181,320 L181,74 L491,74 L491,0 L98,0 L98,272"/> 
            <glyph glyph-name="ł" unicode="&#x142;" horiz-adv-x="276" d=" M10,228 L10,288 L106,343 L106,667 L181,667 L181,386 L276,440 L276,380 L181,326 L181,0 L106,0 L106,283"/> 
            <glyph glyph-name="Ń" unicode="&#x143;" horiz-adv-x="630" d=" M630,0 L550,0 L161,532 L161,0 L78,0 L78,667 L163,667 L547,146 L547,667 L630,667 M514,872 L345,728 L288,728 L436,872"/> 
            <glyph glyph-name="ń" unicode="&#x144;" horiz-adv-x="479" d=" M479,0 L405,0 L405,316 Q405,377 377,402.5 Q349,428 296,428 Q254,428 215,406 Q176,384 153,353 L153,0 L78,0 L78,483 L153,483 L153,413 Q181,447 228,471 Q275,495 326,495 Q479,495 479,339 M436,700 L267,556 L210,556 L358,700"/> 
            <glyph glyph-name="Ņ" unicode="&#x145;" horiz-adv-x="630" d=" M630,0 L550,0 L161,532 L161,0 L78,0 L78,667 L163,667 L547,146 L547,667 L630,667 M411,-138 Q411,-177 391,-213 Q371,-249 340,-272 L308,-246 Q330,-231 346.5,-206.5 Q363,-182 365,-160 L360,-160 Q356,-161 354,-161 Q336,-161 324,-148.5 Q312,-136 312,-117 Q312,-98 325.5,-84.5 Q339,-71 358,-71 Q380,-71 395.5,-89 Q411,-107 411,-138"/> 
            <glyph glyph-name="ņ" unicode="&#x146;" horiz-adv-x="479" d=" M479,0 L405,0 L405,316 Q405,377 377,402.5 Q349,428 296,428 Q254,428 215,406 Q176,384 153,353 L153,0 L78,0 L78,483 L153,483 L153,413 Q181,447 228,471 Q275,495 326,495 Q479,495 479,339 M333,-138 Q333,-177 313,-213 Q293,-249 262,-272 L230,-246 Q252,-231 268.5,-206.5 Q285,-182 287,-160 L282,-160 Q278,-161 276,-161 Q258,-161 246,-148.5 Q234,-136 234,-117 Q234,-98 247.5,-84.5 Q261,-71 280,-71 Q302,-71 317.5,-89 Q333,-107 333,-138"/> 
            <glyph glyph-name="Ň" unicode="&#x147;" horiz-adv-x="630" d=" M630,0 L550,0 L161,532 L161,0 L78,0 L78,667 L163,667 L547,146 L547,667 L630,667 M391,728 L319,728 L221,872 L272,872 L355,766 L435,872 L486,872"/> 
            <glyph glyph-name="ň" unicode="&#x148;" horiz-adv-x="479" d=" M479,0 L405,0 L405,316 Q405,377 377,402.5 Q349,428 296,428 Q254,428 215,406 Q176,384 153,353 L153,0 L78,0 L78,483 L153,483 L153,413 Q181,447 228,471 Q275,495 326,495 Q479,495 479,339 M313,556 L241,556 L143,700 L194,700 L277,594 L357,700 L408,700"/> 
            <glyph glyph-name="ŉ" unicode="&#x149;" horiz-adv-x="479" d=" M479,0 L405,0 L405,316 Q405,377 377,402.5 Q349,428 296,428 Q254,428 215,406 Q176,384 153,353 L153,0 L78,0 L78,483 L153,483 L153,413 Q181,447 228,471 Q275,495 326,495 Q479,495 479,339 M161,676 Q161,637 141,601 Q121,565 90,542 L58,568 Q80,583 96.5,607.5 Q113,632 115,654 L110,654 Q106,653 104,653 Q86,653 74,665.5 Q62,678 62,697 Q62,716 75.5,729.5 Q89,743 108,743 Q130,743 145.5,725 Q161,707 161,676"/> 
            <glyph glyph-name="Ŋ" unicode="&#x14A;" horiz-adv-x="630" d=" M418,-196 Q310,-196 244,-119 L288,-56 Q341,-122 413,-122 Q471,-122 507,-87.5 Q543,-53 546,4 L161,532 L161,0 L78,0 L78,667 L163,667 L547,146 L547,667 L630,667 L630,15 Q630,-89 571,-142.5 Q512,-196 418,-196"/> 
            <glyph glyph-name="ŋ" unicode="&#x14B;" horiz-adv-x="476" d=" M333,-196 Q274,-196 228,-160 L254,-99 Q284,-129 323,-129 Q358,-129 380,-108 Q402,-87 402,-47 L402,316 Q402,377 374,402.5 Q346,428 293,428 Q251,428 212,406 Q173,384 150,353 L150,0 L75,0 L75,483 L150,483 L150,413 Q178,447 225,471 Q272,495 323,495 Q476,495 476,339 L476,-47 Q476,-119 439,-157.5 Q402,-196 333,-196"/> 
            <glyph glyph-name="Ō" unicode="&#x14C;" horiz-adv-x="714" d=" M528,-12 Q236,-12 143.5,86 Q51,184 51,333 Q51,482 143.5,580 Q236,678 382,678 Q528,678 621,580 Q714,482 714,333 Q714,184 528,-12 M382,62 Q492,62 560,138.5 Q628,215 628,333 Q628,451 560,527.5 Q492,604 382,604 Q271,604 204,528 Q137,452 137,333 Q137,215 204,138.5 Q271,62 382,62 M563,749 L200,749 L200,797 L563,797"/> 
            <glyph glyph-name="ō" unicode="&#x14D;" horiz-adv-x="525" d=" M394,-12 Q178,-12 112.5,61 Q47,134 47,242 Q47,350 112.5,422.5 Q178,495 286,495 Q394,495 459.5,422.5 Q525,350 525,242 Q525,134 394,-12 M212,55 Q360,55 403,109.5 Q446,164 446,242 Q446,320 403,374 Q360,428 286,428 Q212,428 169,374 Q126,320 126,242 Q126,164 212,55 M467,578 L104,578 L104,626 L467,626"/> 
            <glyph glyph-name="Ŏ" unicode="&#x14E;" horiz-adv-x="714" d=" M528,-12 Q236,-12 143.5,86 Q51,184 51,333 Q51,482 143.5,580 Q236,678 382,678 Q528,678 621,580 Q714,482 714,333 Q714,184 528,-12 M382,62 Q492,62 560,138.5 Q628,215 628,333 Q628,451 560,527.5 Q492,604 382,604 Q271,604 204,528 Q137,452 137,333 Q137,215 204,138.5 Q271,62 382,62 M557,810 Q492,722 382,722 Q273,722 206,810 L244,842 Q295,770 382,770 Q470,770 521,842"/> 
            <glyph glyph-name="ŏ" unicode="&#x14F;" horiz-adv-x="525" d=" M394,-12 Q178,-12 112.5,61 Q47,134 47,242 Q47,350 112.5,422.5 Q178,495 286,495 Q394,495 459.5,422.5 Q525,350 525,242 Q525,134 394,-12 M212,55 Q360,55 403,109.5 Q446,164 446,242 Q446,320 403,374 Q360,428 286,428 Q212,428 169,374 Q126,320 126,242 Q126,164 212,55 M462,651 Q397,563 287,563 Q178,563 111,651 L149,683 Q200,611 287,611 Q375,611 426,683"/> 
            <glyph glyph-name="Ő" unicode="&#x150;" horiz-adv-x="714" d=" M528,-12 Q236,-12 143.5,86 Q51,184 51,333 Q51,482 143.5,580 Q236,678 382,678 Q528,678 621,580 Q714,482 714,333 Q714,184 528,-12 M382,62 Q492,62 560,138.5 Q628,215 628,333 Q628,451 560,527.5 Q492,604 382,604 Q271,604 204,528 Q137,452 137,333 Q137,215 204,138.5 Q271,62 382,62 M435,872 L320,728 L272,728 L366,872 M577,872 L462,728 L414,728 L508,872"/> 
            <glyph glyph-name="ő" unicode="&#x151;" horiz-adv-x="525" d=" M394,-12 Q178,-12 112.5,61 Q47,134 47,242 Q47,350 112.5,422.5 Q178,495 286,495 Q394,495 459.5,422.5 Q525,350 525,242 Q525,134 394,-12 M212,55 Q360,55 403,109.5 Q446,164 446,242 Q446,320 403,374 Q360,428 286,428 Q212,428 169,374 Q126,320 126,242 Q126,164 212,55 M339,700 L224,556 L176,556 L270,700 M481,700 L366,556 L318,556 L412,700"/> 
            <glyph glyph-name="Œ" unicode="&#x152;" horiz-adv-x="1051" d=" M1051,0 L614,0 L614,121 Q578,57 513,22.5 Q448,-12 375,-12 Q231,-12 141,86 Q51,184 51,333 Q51,482 141,579.5 Q231,677 375,677 Q448,677 513,643 Q578,609 614,546 L614,667 L1051,667 L1051,593 L697,593 L697,378 L1044,378 L1044,304 L697,304 L697,74 L1051,74 M614,224 L614,443 Q585,521 524.5,562 Q464,603 385,603 Q272,603 204.5,527.5 Q137,452 137,333 Q137,215 204.5,138.5 Q272,62 385,62 Q463,62 524,103.5 Q585,145 614,224"/> 
            <glyph glyph-name="œ" unicode="&#x153;" horiz-adv-x="916" d=" M916,217 L526,217 Q531,146 577.5,98 Q624,50 699,50 Q789,50 849,112 L885,63 Q808,-12 693,-12 Q610,-12 560,29.5 Q510,71 485,126 Q423,-12 286,-12 Q178,-12 112.5,61 Q47,134 47,242 Q47,350 112.5,422.5 Q178,495 286,495 Q328,495 364,481 Q400,467 423.5,444.5 Q447,422 461.5,401 Q476,380 486,357 Q508,409 557.5,452 Q607,495 684,495 Q791,495 853.5,421.5 Q916,348 916,236 M525,273 L843,273 Q841,334 800,383.5 Q759,433 684,433 Q612,433 570,384 Q528,335 525,273 M446,242 Q446,321 402.5,374.5 Q359,428 286,428 Q213,428 169.5,374.5 Q126,321 126,242 Q126,162 169.5,108 Q213,54 286,54 Q359,54 402.5,108 Q446,162 446,242"/> 
            <glyph glyph-name="Ŕ" unicode="&#x154;" horiz-adv-x="562" d=" M562,0 L464,0 L295,265 L161,265 L161,0 L78,0 L78,667 L346,667 Q439,667 497.5,612 Q556,557 556,466 Q556,380 505.5,329 Q455,278 382,272 M336,338 Q395,338 432.5,374 Q470,410 470,466 Q470,523 432.5,558 Q395,593 336,593 L161,593 L161,338 M465,872 L296,728 L239,728 L387,872"/> 
            <glyph glyph-name="ŕ" unicode="&#x155;" horiz-adv-x="352" d=" M150,0 L75,0 L75,483 L150,483 L150,406 Q219,494 311,494 L311,417 Q293,419 282,419 Q247,419 207,395.5 Q167,372 150,342 M352,700 L183,556 L126,556 L274,700"/> 
            <glyph glyph-name="Ŗ" unicode="&#x156;" horiz-adv-x="562" d=" M562,0 L464,0 L295,265 L161,265 L161,0 L78,0 L78,667 L346,667 Q439,667 497.5,612 Q556,557 556,466 Q556,380 505.5,329 Q455,278 382,272 M336,338 Q395,338 432.5,374 Q470,410 470,466 Q470,523 432.5,558 Q395,593 336,593 L161,593 L161,338 M362,-138 Q362,-177 342,-213 Q322,-249 291,-272 L259,-246 Q281,-231 297.5,-206.5 Q314,-182 316,-160 L312,-160 Q307,-161 305,-161 Q287,-161 275,-148.5 Q263,-136 263,-117 Q263,-98 276.5,-84.5 Q290,-71 309,-71 Q331,-71 346.5,-89 Q362,-107 362,-138"/> 
            <glyph glyph-name="ŗ" unicode="&#x157;" horiz-adv-x="311" d=" M150,0 L75,0 L75,483 L150,483 L150,406 Q219,494 311,494 L311,417 Q293,419 282,419 Q247,419 207,395.5 Q167,372 150,342 M222,-138 Q222,-177 202,-213 Q182,-249 151,-272 L119,-246 Q141,-231 157.5,-206.5 Q174,-182 176,-160 L172,-160 Q167,-161 165,-161 Q147,-161 135,-148.5 Q123,-136 123,-117 Q123,-98 136.5,-84.5 Q150,-71 169,-71 Q191,-71 206.5,-89 Q222,-107 222,-138"/> 
            <glyph glyph-name="Ř" unicode="&#x158;" horiz-adv-x="562" d=" M562,0 L464,0 L295,265 L161,265 L161,0 L78,0 L78,667 L346,667 Q439,667 497.5,612 Q556,557 556,466 Q556,380 505.5,329 Q455,278 382,272 M336,338 Q395,338 432.5,374 Q470,410 470,466 Q470,523 432.5,558 Q395,593 336,593 L161,593 L161,338 M343,728 L271,728 L173,872 L224,872 L307,766 L387,872 L438,872"/> 
            <glyph glyph-name="ř" unicode="&#x159;" horiz-adv-x="324" d=" M150,0 L75,0 L75,483 L150,483 L150,406 Q219,494 311,494 L311,417 Q293,419 282,419 Q247,419 207,395.5 Q167,372 150,342 M229,556 L157,556 L59,700 L110,700 L193,594 L273,700 L324,700"/> 
            <glyph glyph-name="Ś" unicode="&#x15A;" horiz-adv-x="540" d=" M294,-12 Q132,-12 38,94 L88,158 Q171,62 297,62 Q378,62 416,97 Q454,132 454,178 Q454,218 424.5,244.5 Q395,271 351.5,283 Q308,295 256.5,310.5 Q205,326 161.5,343 Q118,360 88.5,398 Q59,436 59,492 Q59,574 124,626 Q189,678 289,678 Q436,678 525,584 L475,523 Q404,603 282,603 Q222,603 183.5,573.5 Q145,544 145,497 Q145,462 174.5,439 Q204,416 247.5,405 Q291,394 342.5,377.5 Q394,361 437.5,342.5 Q481,324 510.5,283 Q540,242 540,184 Q540,103 479.5,45.5 Q419,-12 294,-12 M452,872 L283,728 L226,728 L374,872"/> 
            <glyph glyph-name="ś" unicode="&#x15B;" horiz-adv-x="418" d=" M229,-12 Q107,-12 34,64 L72,118 Q97,89 140.5,69 Q184,49 231,49 Q285,49 315.5,72 Q346,95 346,132 Q346,164 315,182.5 Q284,201 240,210.5 Q196,220 152.5,232.5 Q109,245 78,275.5 Q47,306 47,356 Q47,415 95,455 Q143,495 226,495 Q337,495 405,425 L370,373 Q319,434 226,434 Q177,434 148,412.5 Q119,391 119,358 Q119,334 141,318 Q163,302 196.5,295 Q230,288 268.5,277 Q307,266 340.5,252.5 Q374,239 396,208.5 Q418,178 418,134 Q418,70 368.5,29 Q319,-12 229,-12 M393,700 L224,556 L167,556 L315,700"/> 
            <glyph glyph-name="Ŝ" unicode="&#x15C;" horiz-adv-x="540" d=" M418,728 L367,728 L284,834 L204,728 L153,728 L248,872 L320,872 M294,-12 Q132,-12 38,94 L88,158 Q171,62 297,62 Q378,62 416,97 Q454,132 454,178 Q454,218 424.5,244.5 Q395,271 351.5,283 Q308,295 256.5,310.5 Q205,326 161.5,343 Q118,360 88.5,398 Q59,436 59,492 Q59,574 124,626 Q189,678 289,678 Q436,678 525,584 L475,523 Q404,603 282,603 Q222,603 183.5,573.5 Q145,544 145,497 Q145,462 174.5,439 Q204,416 247.5,405 Q291,394 342.5,377.5 Q394,361 437.5,342.5 Q481,324 510.5,283 Q540,242 540,184 Q540,103 479.5,45.5 Q419,-12 294,-12"/> 
            <glyph glyph-name="ŝ" unicode="&#x15D;" horiz-adv-x="418" d=" M229,-12 Q107,-12 34,64 L72,118 Q97,89 140.5,69 Q184,49 231,49 Q285,49 315.5,72 Q346,95 346,132 Q346,164 315,182.5 Q284,201 240,210.5 Q196,220 152.5,232.5 Q109,245 78,275.5 Q47,306 47,356 Q47,415 95,455 Q143,495 226,495 Q337,495 405,425 L370,373 Q319,434 226,434 Q177,434 148,412.5 Q119,391 119,358 Q119,334 141,318 Q163,302 196.5,295 Q230,288 268.5,277 Q307,266 340.5,252.5 Q374,239 396,208.5 Q418,178 418,134 Q418,70 368.5,29 Q319,-12 229,-12 M361,556 L310,556 L227,662 L147,556 L96,556 L191,700 L263,700"/> 
            </font>
</defs>
</svg>
